<svg width="40" height="40" viewBox="0 0 40 40" fill="none" xmlns="http://www.w3.org/2000/svg">
<path d="M26.6667 10C26.6667 11.7682 25.9644 13.4638 24.7141 14.7141C23.4639 15.9643 21.7682 16.6667 20.0001 16.6667C18.232 16.6667 16.5363 15.9643 15.286 14.7141C14.0358 13.4638 13.3334 11.7682 13.3334 10C13.3334 8.23193 14.0358 6.53624 15.286 5.286C16.5363 4.03575 18.232 3.33337 20.0001 3.33337C21.7682 3.33337 23.4639 4.03575 24.7141 5.286C25.9644 6.53624 26.6667 8.23193 26.6667 10ZM26.1301 22.505C25.3417 22.5134 24.6067 22.5434 23.9667 22.6284C22.8951 22.7734 21.7217 23.1167 20.7534 24.0867C19.7834 25.055 19.4401 26.2284 19.2967 27.3C19.1667 28.2634 19.1667 29.44 19.1667 30.69V30.9767C19.1667 32.2267 19.1667 33.4034 19.2967 34.3667C19.3967 35.1184 19.5967 35.92 20.0417 36.6667H20.0001C6.66675 36.6667 6.66675 33.3084 6.66675 29.1667C6.66675 25.025 12.6367 21.6667 20.0001 21.6667C22.2101 21.6667 24.2951 21.9684 26.1301 22.505Z" fill="#FAD0C4"/>
<path fill-rule="evenodd" clip-rule="evenodd" d="M27.5001 36.6667C24.7501 36.6667 23.3751 36.6667 22.5217 35.8117C21.6667 34.9584 21.6667 33.5834 21.6667 30.8334C21.6667 28.0834 21.6667 26.7084 22.5217 25.8551C23.3751 25.0001 24.7501 25.0001 27.5001 25.0001C30.2501 25.0001 31.6251 25.0001 32.4784 25.8551C33.3334 26.7084 33.3334 28.0834 33.3334 30.8334C33.3334 33.5834 33.3334 34.9584 32.4784 35.8117C31.6251 36.6667 30.2501 36.6667 27.5001 36.6667ZM30.7801 29.5767C30.9624 29.3944 31.0649 29.1471 31.0649 28.8892C31.0649 28.6314 30.9624 28.3841 30.7801 28.2017C30.5977 28.0194 30.3504 27.917 30.0926 27.917C29.8347 27.917 29.5874 28.0194 29.4051 28.2017L26.2051 31.4017L25.5951 30.7934C25.5048 30.7031 25.3976 30.6315 25.2797 30.5826C25.1617 30.5338 25.0353 30.5086 24.9076 30.5086C24.7799 30.5086 24.6535 30.5338 24.5355 30.5826C24.4175 30.6315 24.3104 30.7031 24.2201 30.7934C24.1298 30.8837 24.0582 30.9909 24.0093 31.1088C23.9605 31.2268 23.9353 31.3532 23.9353 31.4809C23.9353 31.6086 23.9605 31.735 24.0093 31.853C24.0582 31.9709 24.1298 32.0781 24.2201 32.1684L25.5167 33.4651C25.607 33.5554 25.7142 33.6271 25.8321 33.676C25.9501 33.7249 26.0765 33.7501 26.2042 33.7501C26.332 33.7501 26.4584 33.7249 26.5764 33.676C26.6943 33.6271 26.8015 33.5554 26.8917 33.4651L30.7801 29.5767Z" fill="#FAD0C4"/>
</svg>
