<svg width="28" height="28" viewBox="0 0 28 28" fill="none" xmlns="http://www.w3.org/2000/svg">
<path fill-rule="evenodd" clip-rule="evenodd" d="M18.3249 13.1752C18.5436 13.3939 18.6665 13.6906 18.6665 14C18.6665 14.3094 18.5436 14.606 18.3249 14.8248L11.7251 21.4247C11.6175 21.5361 11.4887 21.625 11.3464 21.6861C11.204 21.7473 11.051 21.7794 10.896 21.7808C10.7411 21.7821 10.5875 21.7526 10.4441 21.694C10.3007 21.6353 10.1705 21.5487 10.0609 21.4391C9.95141 21.3296 9.86478 21.1993 9.80612 21.0559C9.74745 20.9126 9.71794 20.7589 9.71928 20.604C9.72063 20.4491 9.75281 20.296 9.81396 20.1537C9.8751 20.0114 9.96398 19.8826 10.0754 19.775L15.8504 14L10.0754 8.225C9.86289 8.00496 9.7453 7.71026 9.74795 7.40436C9.75061 7.09847 9.87331 6.80585 10.0896 6.58954C10.3059 6.37323 10.5985 6.25054 10.9044 6.24788C11.2103 6.24522 11.505 6.36281 11.7251 6.57533L18.3249 13.1752Z" fill="black"/>
</svg>
