<svg width="14" height="8" viewBox="0 0 14 8" fill="none" xmlns="http://www.w3.org/2000/svg">
<path fill-rule="evenodd" clip-rule="evenodd" d="M7.64807 7.39819C7.47617 7.57004 7.24306 7.66658 6.99999 7.66658C6.75692 7.66658 6.52381 7.57004 6.35191 7.39819L1.16632 2.21261C1.07877 2.12805 1.00894 2.0269 0.960896 1.91507C0.912854 1.80323 0.887567 1.68294 0.886509 1.56123C0.885452 1.43951 0.908645 1.31881 0.954736 1.20615C1.00083 1.0935 1.06889 0.99115 1.15496 0.905082C1.24103 0.819014 1.34338 0.750948 1.45603 0.704857C1.56869 0.658767 1.68939 0.635574 1.81111 0.636631C1.93282 0.637689 2.05311 0.662976 2.16494 0.711018C2.27678 0.75906 2.37793 0.828893 2.46249 0.916444L6.99999 5.45394L11.5375 0.916444C11.7104 0.749466 11.9419 0.657071 12.1823 0.659159C12.4226 0.661248 12.6525 0.757653 12.8225 0.92761C12.9924 1.09757 13.0889 1.32748 13.0909 1.56783C13.093 1.80817 13.0006 2.03973 12.8337 2.21261L7.64807 7.39819Z" fill="black"/>
</svg>
