<svg width="22" height="24" viewBox="0 0 22 24" fill="none" xmlns="http://www.w3.org/2000/svg">
<path d="M11.0001 0.166626C16.9833 0.166626 21.8334 5.01671 21.8334 11C21.8334 16.9832 16.9833 21.8333 11.0001 21.8333H2.33341C1.75878 21.8333 1.20768 21.605 0.80135 21.1987C0.395021 20.7924 0.166748 20.2413 0.166748 19.6666V11C0.166748 5.01671 5.01683 0.166626 11.0001 0.166626ZM11.0001 13.1666H7.75008C7.46276 13.1666 7.18721 13.2808 6.98405 13.4839C6.78088 13.6871 6.66675 13.9626 6.66675 14.25C6.66675 14.5373 6.78088 14.8128 6.98405 15.016C7.18721 15.2192 7.46276 15.3333 7.75008 15.3333H11.0001C11.2874 15.3333 11.5629 15.2192 11.7661 15.016C11.9693 14.8128 12.0834 14.5373 12.0834 14.25C12.0834 13.9626 11.9693 13.6871 11.7661 13.4839C11.5629 13.2808 11.2874 13.1666 11.0001 13.1666ZM14.2501 8.83329H7.75008C7.47396 8.8336 7.20838 8.93933 7.0076 9.12888C6.80682 9.31843 6.68599 9.57749 6.66981 9.85314C6.65363 10.1288 6.74331 10.4002 6.92053 10.6119C7.09776 10.8237 7.34914 10.9598 7.62333 10.9924L7.75008 11H14.2501C14.5262 10.9997 14.7918 10.8939 14.9926 10.7044C15.1933 10.5148 15.3142 10.2558 15.3303 9.98011C15.3465 9.70447 15.2569 9.43305 15.0796 9.22131C14.9024 9.00957 14.651 8.87349 14.3768 8.84088L14.2501 8.83329Z" fill="#FAFAFA"/>
</svg>
