<svg width="16" height="17" viewBox="0 0 16 17" fill="none" xmlns="http://www.w3.org/2000/svg">
<path d="M8.00016 1.83329C11.6822 1.83329 14.6668 4.81796 14.6668 8.49996C14.6668 12.182 11.6822 15.1666 8.00016 15.1666C4.31816 15.1666 1.3335 12.182 1.3335 8.49996C1.3335 4.81796 4.31816 1.83329 8.00016 1.83329ZM8.00016 3.16663C6.58567 3.16663 5.22912 3.72853 4.22893 4.72872C3.22873 5.72892 2.66683 7.08547 2.66683 8.49996C2.66683 9.91445 3.22873 11.271 4.22893 12.2712C5.22912 13.2714 6.58567 13.8333 8.00016 13.8333C9.41465 13.8333 10.7712 13.2714 11.7714 12.2712C12.7716 11.271 13.3335 9.91445 13.3335 8.49996C13.3335 7.08547 12.7716 5.72892 11.7714 4.72872C10.7712 3.72853 9.41465 3.16663 8.00016 3.16663ZM8.00016 4.49996C8.16345 4.49998 8.32105 4.55993 8.44308 4.66844C8.5651 4.77694 8.64306 4.92646 8.66216 5.08863L8.66683 5.16663V8.22396L10.4715 10.0286C10.5911 10.1486 10.6605 10.3096 10.6656 10.4789C10.6708 10.6482 10.6114 10.8131 10.4993 10.9401C10.3873 11.0672 10.2311 11.1468 10.0625 11.1629C9.8939 11.179 9.72549 11.1302 9.5915 11.0266L9.52883 10.9713L7.52883 8.97129C7.42522 8.86759 7.35867 8.73263 7.3395 8.58729L7.3335 8.49996V5.16663C7.3335 4.98982 7.40373 4.82025 7.52876 4.69522C7.65378 4.5702 7.82335 4.49996 8.00016 4.49996Z" fill="#299392"/>
</svg>
