<svg width="62" height="62" viewBox="0 0 62 62" fill="none" xmlns="http://www.w3.org/2000/svg">
<path fill-rule="evenodd" clip-rule="evenodd" d="M5.16667 0C3.79638 0 2.48222 0.544344 1.51328 1.51328C0.544344 2.48222 0 3.79638 0 5.16667V56.8333C0 58.2036 0.544344 59.5178 1.51328 60.4867C2.48222 61.4557 3.79638 62 5.16667 62H56.8333C58.2036 62 59.5178 61.4557 60.4867 60.4867C61.4557 59.5178 62 58.2036 62 56.8333V5.16667C62 3.79638 61.4557 2.48222 60.4867 1.51328C59.5178 0.544344 58.2036 0 56.8333 0H5.16667ZM48.6924 23.8838L47.3422 23.2345C52.9497 28.5217 51.5203 36.4887 48.0173 42.5475C46.1917 45.7043 43.7014 48.5753 40.9734 50.6729C38.2729 52.7499 35.1729 54.1932 32.1487 54.1932C29.1159 54.1932 26.0899 52.7413 23.4842 50.6729C20.8527 48.5839 18.4881 45.7439 16.7486 42.6646C15.0143 39.5922 13.8449 36.1718 13.7347 32.9168C13.671 31.0069 13.9741 29.1279 14.7577 27.4229L14.7061 27.3592C14.4673 27.0739 14.2058 26.8084 13.9242 26.5653C13.2181 25.9556 12.214 25.3304 10.9223 25.1221C10.6949 25.0858 10.4772 25.0042 10.2818 24.8823C10.0865 24.7604 9.9176 24.6005 9.78513 24.4121C9.65267 24.2238 9.55931 24.0108 9.5106 23.7857C9.46188 23.5607 9.45879 23.3282 9.5015 23.1019C10.0784 20.0587 10.5986 18.2487 10.9998 17.1671C11.1482 16.755 11.3279 16.3549 11.5372 15.9702C11.6339 15.7991 11.7451 15.6366 11.8696 15.4845L11.9247 15.4242L11.9522 15.3967L11.966 15.3829L11.9712 15.3743L11.9746 15.3708C11.9781 15.3708 11.9798 15.3691 13.1871 16.5953C13.6727 14.9437 13.6744 14.9437 13.6744 14.9454H13.6779L13.6848 14.9472L13.7089 14.9558L13.7933 14.9799L14.0895 15.0763C15.5324 15.5517 16.9325 16.1486 18.2745 16.8606C19.2397 17.3697 20.1543 17.9694 21.0059 18.6517L19.2217 15.903C18.9776 15.5266 18.8899 15.0699 18.9774 14.6298C19.0649 14.1898 19.3206 13.8013 19.6902 13.547L25.2168 9.74089C25.5843 9.48797 26.0357 9.38756 26.4758 9.46081C26.9159 9.53405 27.3104 9.77523 27.5762 10.1336L28.4287 11.2823V9.52906C28.4287 9.07229 28.6102 8.63424 28.9331 8.31126C29.2561 7.98828 29.6942 7.80683 30.1509 7.80683H37.0278C37.4845 7.80683 37.9226 7.98828 38.2456 8.31126C38.5686 8.63424 38.75 9.07229 38.75 9.52906V11.8472L38.8533 11.9402C39.1719 12.2329 39.5526 12.6204 39.959 13.1147C42.8609 12.6032 46.3657 12.8926 50.5421 14.4374L52.1093 15.0178L51.5754 16.6022C51.1931 17.7441 50.7694 18.6517 50.3853 19.4749L50.375 19.4973C49.9841 20.3343 49.6344 21.0886 49.3141 22.0376L48.6924 23.8838ZM13.1871 16.5971L11.9798 15.3691C12.1988 15.1538 12.4714 15.001 12.7694 14.9265C13.0674 14.852 13.3799 14.8585 13.6744 14.9454L13.1871 16.5971ZM17.4892 23.87C18.2073 23.2844 18.9996 22.8677 19.8262 22.5818L19.9709 22.5112C19.7777 22.2386 19.5585 21.9854 19.3164 21.7551C18.6103 21.0662 17.6579 20.4376 16.647 19.8968C15.7342 19.4077 14.8214 19.0185 14.0981 18.7378C13.8604 19.4439 13.5522 20.5341 13.2008 22.1788C14.4947 22.6668 15.6708 23.4228 16.6522 24.397C16.9285 24.2171 17.2075 24.0414 17.4892 23.87ZM21.1368 25.7765C20.5496 26.0744 20.0002 26.3827 19.5093 26.6738C17.8198 28.1928 17.0931 30.2991 17.1774 32.7997C17.2636 35.3538 18.2022 38.2316 19.747 40.9699C21.2884 43.7014 23.374 46.1883 25.6249 47.9742C27.9 49.7791 30.1854 50.7487 32.1487 50.7487C34.1241 50.7487 36.4939 49.7722 38.8723 47.9415C41.2248 46.1349 43.4224 43.6136 45.0361 40.8236C48.3479 35.0954 48.8061 29.1245 44.7519 25.5337C44.3722 25.1859 43.9427 24.8968 43.4775 24.676L43.1227 24.5003C42.8299 24.3557 42.47 24.1817 42.0463 23.9527C40.9906 24.5003 39.7919 25.4613 38.7156 26.4706C37.9821 27.1594 37.2826 27.8836 36.6196 28.6406L36.5938 28.6716L36.5886 28.6784L36.3389 28.9712L36.2097 29.1848L34.2068 36.3716L34.9077 37.9905L38.5571 37.5686L38.9532 40.9889L35.6655 41.3712L35.8773 44.4747L32.4415 44.7089L32.1384 40.2621L30.5626 36.6213L30.6401 36.3406L29.6033 36.8108L28.1497 40.4826L24.9464 39.2167L25.9229 36.7488L22.8504 36.0254L23.6392 32.6723L28.0826 33.7177L31.8456 32.0161L32.891 28.2634L32.6189 28.1325C31.2055 27.4535 29.7474 26.8717 28.2548 26.3913C26.5549 25.8574 24.7966 25.4889 23.219 25.4958C22.515 25.4875 21.8135 25.5821 21.1368 25.7765ZM34.7286 25.2013L34.8733 25.0153C35.743 23.8906 36.7264 22.8587 37.8079 21.9359C39.9228 20.1586 43.0831 18.4157 46.6808 19.3009C46.8714 18.8646 47.0586 18.4525 47.2423 18.0644L47.2526 18.042C47.4007 17.7251 47.5419 17.422 47.6797 17.112C41.8104 15.3846 38.1403 16.771 35.8446 18.6706C33.8933 20.2843 32.7687 22.4078 32.2193 23.8562C33.0625 24.292 33.899 24.7404 34.7286 25.2013ZM24.7139 19.9399L24.7466 19.7987C24.9032 19.5241 24.9812 19.2118 24.9721 18.8959C24.9629 18.5799 24.8671 18.2726 24.6949 18.0076L23.0244 15.4328L25.8023 13.5212L27.6382 15.9926C27.8014 16.2118 28.0144 16.3891 28.2596 16.5098C28.5049 16.6305 28.7753 16.6911 29.0486 16.6865C29.3219 16.682 29.5902 16.6124 29.8313 16.4837C30.0723 16.3549 30.2793 16.1706 30.4351 15.9461L31.5666 14.3151C31.7664 14.0267 31.8733 13.6843 31.8732 13.3334V11.2513H35.3056V12.679C35.3058 12.9565 35.3731 13.2298 35.5018 13.4757C35.6304 13.7216 35.8166 13.9328 36.0444 14.0912C34.7699 14.7508 33.5816 15.7239 32.5862 16.7607C31.1085 18.2986 29.7996 20.2361 28.9971 22.2322C27.8144 22.0253 26.6153 21.9272 25.4148 21.9394C24.9757 21.9394 24.7501 21.9359 24.5399 21.9049C24.5744 20.8423 24.6536 20.2482 24.7139 19.9399Z" fill="black"/>
</svg>
