<svg width="16" height="16" viewBox="0 0 16 16" fill="none" xmlns="http://www.w3.org/2000/svg">
<path fill-rule="evenodd" clip-rule="evenodd" d="M12.0975 3.75415C12.0975 5.19624 11.7391 7.07707 11.1879 6.79165C10.9625 7.52778 10.4892 8.16321 9.8485 8.59003C9.20779 9.01686 8.43909 9.20878 7.67294 9.1332C6.90679 9.05762 6.19042 8.7192 5.64545 8.17541C5.10048 7.63162 4.76052 6.91597 4.68329 6.14999C4.13621 5.1929 3.41871 3.27499 5.26329 1.77999C5.29662 1.76915 5.31663 1.67915 5.34663 1.54665C5.46079 1.0454 5.71371 -0.0687633 7.30912 0.144153C8.53954 0.307903 12.0975 0.942904 12.0975 3.75415ZM10.5116 4.66374C10.5116 4.66374 10.3233 5.21457 10.5 5.82832C10.4977 6.48273 10.2389 7.11015 9.77912 7.57587C9.31938 8.04159 8.69535 8.30847 8.04102 8.31922C7.3867 8.32996 6.75425 8.08371 6.27946 7.63334C5.80467 7.18297 5.52541 6.56439 5.50162 5.9104C5.56204 5.68124 5.56204 5.29332 5.56163 4.86207C5.56121 4.08415 5.56038 3.16624 5.91663 2.79207C8.41204 4.45415 10.5116 4.66374 10.5116 4.66374Z" fill="#333333"/>
<path d="M3.41667 13C3.41667 12.5491 3.65542 12.1541 4.01375 11.9341C4.00013 11.8823 3.98736 11.8302 3.97542 11.7779C3.91243 11.4932 3.86307 11.2056 3.8275 10.9162C3.79196 10.6389 3.77041 10.3599 3.76292 10.0804C2.00417 10.7708 0.5 11.9741 0.5 13.2375V15.5H15.5V13.2375C15.5 12.0275 14.1208 10.8729 12.4592 10.1708V10.1825C12.4667 10.4366 12.4525 10.7283 12.425 11.0087C12.4 11.2687 12.3629 11.5279 12.3183 11.75H12.5833C12.6607 11.75 12.7365 11.7716 12.8023 11.8123C12.8681 11.853 12.9213 11.9112 12.9558 11.9804L13.3725 12.8137C13.4017 12.8716 13.4167 12.9354 13.4167 13V13.8333C13.4167 13.9438 13.3728 14.0498 13.2946 14.1279C13.2165 14.2061 13.1105 14.25 13 14.25H12.1667V13.4166H12.5833V13.0983L12.3258 12.5833H11.1742L10.9167 13.0983V13.4166H11.3333V14.25H10.5C10.3895 14.25 10.2835 14.2061 10.2054 14.1279C10.1272 14.0498 10.0833 13.9438 10.0833 13.8333V13C10.0833 12.9354 10.0983 12.8716 10.1275 12.8137L10.5442 11.9804C10.5787 11.9112 10.6319 11.853 10.6977 11.8123C10.7635 11.7716 10.8393 11.75 10.9167 11.75H11.4646C11.4737 11.7141 11.4829 11.6744 11.4921 11.6308C11.5337 11.4345 11.5708 11.1858 11.5958 10.9287C11.6208 10.6712 11.6325 10.4158 11.6262 10.2058C11.6249 10.1188 11.6181 10.032 11.6058 9.9458C11.5967 9.88663 11.5875 9.85955 11.5858 9.85371C11.5853 9.85232 11.5853 9.85205 11.5858 9.85288L11.5871 9.85246C11.366 9.78388 11.1423 9.7237 10.9167 9.67205C10.7071 9.62413 10.4904 9.91246 10.3958 10.0929H5.5L5.46417 10.0229C5.37583 9.84705 5.26708 9.62996 5.08333 9.67205C4.92278 9.70844 4.76236 9.74968 4.60208 9.7958C4.5971 9.86888 4.59488 9.94213 4.59542 10.0154C4.59708 10.2458 4.61917 10.5279 4.65458 10.8129C4.69 11.097 4.73792 11.3737 4.78792 11.592C4.80236 11.6551 4.81625 11.7112 4.82958 11.7604C5.0678 11.7917 5.29194 11.891 5.47518 12.0464C5.65841 12.2018 5.79298 12.4067 5.86277 12.6366C5.93256 12.8665 5.93461 13.1117 5.86869 13.3427C5.80276 13.5738 5.67164 13.7809 5.49103 13.9394C5.31042 14.0978 5.08798 14.2009 4.85032 14.2362C4.61267 14.2715 4.36987 14.2375 4.15101 14.1384C3.93214 14.0393 3.74647 13.8792 3.61624 13.6773C3.486 13.4754 3.41671 13.2402 3.41667 13Z" fill="#333333"/>
<path d="M5.08333 12.9999C5.08333 13.2391 4.89083 13.4229 4.66667 13.4229C4.4425 13.4229 4.25 13.2395 4.25 12.9999C4.25 12.7608 4.4425 12.577 4.66667 12.577C4.89083 12.577 5.08333 12.7604 5.08333 12.9999Z" fill="#333333"/>
</svg>
