<svg width="20" height="20" viewBox="0 0 20 20" fill="none" xmlns="http://www.w3.org/2000/svg">
<path fill-rule="evenodd" clip-rule="evenodd" d="M14.0976 5.75415C14.0976 7.19624 13.7392 9.07707 13.188 8.79165C12.9626 9.52778 12.4893 10.1632 11.8486 10.59C11.2079 11.0169 10.4392 11.2088 9.67307 11.1332C8.90692 11.0576 8.19054 10.7192 7.64557 10.1754C7.10061 9.63162 6.76065 8.91597 6.68341 8.14999C6.13633 7.1929 5.41883 5.27499 7.26341 3.77999C7.29675 3.76915 7.31675 3.67915 7.34675 3.54665C7.46091 3.0454 7.71383 1.93124 9.30925 2.14415C10.5397 2.3079 14.0976 2.9429 14.0976 5.75415ZM12.5117 6.66374C12.5117 6.66374 12.3234 7.21457 12.5001 7.82832C12.4978 8.48273 12.239 9.11015 11.7792 9.57587C11.3195 10.0416 10.6955 10.3085 10.0411 10.3192C9.38682 10.33 8.75437 10.0837 8.27958 9.63334C7.80479 9.18297 7.52553 8.56439 7.50175 7.9104C7.56216 7.68124 7.56216 7.29332 7.56175 6.86207C7.56133 6.08415 7.5605 5.16624 7.91675 4.79207C10.4122 6.45415 12.5117 6.66374 12.5117 6.66374Z" fill="#333333"/>
<path d="M5.41667 15C5.41667 14.5492 5.65542 14.1542 6.01375 13.9342C6.00013 13.8823 5.98736 13.8302 5.97542 13.7779C5.91243 13.4932 5.86307 13.2057 5.8275 12.9162C5.79196 12.6389 5.77041 12.3599 5.76292 12.0804C4.00417 12.7708 2.5 13.9742 2.5 15.2375V17.5H17.5V15.2375C17.5 14.0275 16.1208 12.8729 14.4592 12.1708V12.1825C14.4667 12.4367 14.4525 12.7283 14.425 13.0087C14.4 13.2687 14.3629 13.5279 14.3183 13.75H14.5833C14.6607 13.75 14.7365 13.7716 14.8023 13.8123C14.8681 13.853 14.9213 13.9112 14.9558 13.9804L15.3725 14.8137C15.4017 14.8717 15.4167 14.9354 15.4167 15V15.8333C15.4167 15.9438 15.3728 16.0498 15.2946 16.128C15.2165 16.2061 15.1105 16.25 15 16.25H14.1667V15.4167H14.5833V15.0983L14.3258 14.5833H13.1742L12.9167 15.0983V15.4167H13.3333V16.25H12.5C12.3895 16.25 12.2835 16.2061 12.2054 16.128C12.1272 16.0498 12.0833 15.9438 12.0833 15.8333V15C12.0833 14.9354 12.0983 14.8717 12.1275 14.8137L12.5442 13.9804C12.5787 13.9112 12.6319 13.853 12.6977 13.8123C12.7635 13.7716 12.8393 13.75 12.9167 13.75H13.4646C13.4737 13.7142 13.4829 13.6744 13.4921 13.6308C13.5337 13.4346 13.5708 13.1858 13.5958 12.9287C13.6208 12.6712 13.6325 12.4158 13.6262 12.2058C13.6249 12.1188 13.6181 12.032 13.6058 11.9458C13.5967 11.8867 13.5875 11.8596 13.5858 11.8537C13.5853 11.8524 13.5853 11.8521 13.5858 11.8529L13.5871 11.8525C13.366 11.7839 13.1423 11.7237 12.9167 11.6721C12.7071 11.6242 12.4904 11.9125 12.3958 12.0929H7.5L7.46417 12.0229C7.37583 11.8471 7.26708 11.63 7.08333 11.6721C6.92278 11.7085 6.76236 11.7497 6.60208 11.7958C6.5971 11.8689 6.59488 11.9422 6.59542 12.0154C6.59708 12.2458 6.61917 12.5279 6.65458 12.8129C6.69 13.0971 6.73792 13.3737 6.78792 13.5921C6.80236 13.6551 6.81625 13.7112 6.82958 13.7604C7.0678 13.7917 7.29194 13.891 7.47518 14.0464C7.65841 14.2018 7.79298 14.4068 7.86277 14.6367C7.93256 14.8666 7.93461 15.1117 7.86869 15.3427C7.80276 15.5738 7.67164 15.7809 7.49103 15.9394C7.31042 16.0978 7.08798 16.2009 6.85032 16.2362C6.61267 16.2715 6.36987 16.2375 6.15101 16.1384C5.93214 16.0393 5.74647 15.8792 5.61624 15.6773C5.486 15.4754 5.41671 15.2403 5.41667 15Z" fill="#333333"/>
<path d="M7.08333 15C7.08333 15.2392 6.89083 15.4229 6.66667 15.4229C6.4425 15.4229 6.25 15.2396 6.25 15C6.25 14.7608 6.4425 14.5771 6.66667 14.5771C6.89083 14.5771 7.08333 14.7604 7.08333 15Z" fill="#333333"/>
</svg>
