<svg width="24" height="16" viewBox="0 0 24 16" fill="none" xmlns="http://www.w3.org/2000/svg">
<path fill-rule="evenodd" clip-rule="evenodd" d="M22.5623 8.0001L23.2367 7.6621V7.65885L23.2318 7.65398L23.2221 7.63448L23.1879 7.56948L23.0579 7.33548C22.8993 7.06184 22.7307 6.79407 22.5526 6.53273C21.958 5.66002 21.2746 4.85132 20.5132 4.1196C18.6834 2.3646 15.8673 0.573853 11.9998 0.573853C8.13557 0.573853 5.31782 2.36298 3.48807 4.1196C2.72669 4.85132 2.04324 5.66002 1.44869 6.53273C1.20744 6.88868 0.984 7.25638 0.779192 7.63448L0.769442 7.65398L0.766192 7.65885V7.66048C0.766192 7.66048 0.764567 7.6621 1.43894 8.0001L0.764567 7.66048C0.712428 7.76581 0.685303 7.88176 0.685303 7.99929C0.685303 8.11682 0.712428 8.23277 0.764567 8.3381L0.762942 8.34135L0.767817 8.34623L0.777567 8.36573C0.828238 8.46726 0.882437 8.56698 0.940067 8.66473C1.63979 9.84677 2.49576 10.929 3.48482 11.8822C5.31619 13.6372 8.13232 15.4247 11.9998 15.4247C15.8657 15.4247 18.6834 13.6372 20.5148 11.8806C21.2748 11.148 21.9576 10.3394 22.5526 9.46748C22.7804 9.13199 22.9924 8.78603 23.1879 8.43073L23.2221 8.36573L23.2318 8.34623L23.2351 8.34135V8.33973C23.2351 8.33973 23.2367 8.3381 22.5623 8.0001ZM22.5623 8.0001L23.2367 8.33973C23.2888 8.23439 23.316 8.11845 23.316 8.00091C23.316 7.88338 23.2888 7.76744 23.2367 7.6621L22.5623 8.0001ZM11.9023 5.5041C11.2403 5.5041 10.6055 5.76707 10.1374 6.23516C9.66929 6.70326 9.40632 7.33812 9.40632 8.0001C9.40632 8.66208 9.66929 9.29695 10.1374 9.76504C10.6055 10.2331 11.2403 10.4961 11.9023 10.4961C12.5643 10.4961 13.1992 10.2331 13.6673 9.76504C14.1353 9.29695 14.3983 8.66208 14.3983 8.0001C14.3983 7.33812 14.1353 6.70326 13.6673 6.23516C13.1992 5.76707 12.5643 5.5041 11.9023 5.5041ZM7.90157 8.0001C7.90157 6.93818 8.32342 5.91974 9.07431 5.16885C9.82521 4.41795 10.8436 3.9961 11.9056 3.9961C12.9675 3.9961 13.9859 4.41795 14.7368 5.16885C15.4877 5.91974 15.9096 6.93818 15.9096 8.0001C15.9096 9.06203 15.4877 10.0805 14.7368 10.8314C13.9859 11.5823 12.9675 12.0041 11.9056 12.0041C10.8436 12.0041 9.82521 11.5823 9.07431 10.8314C8.32342 10.0805 7.90157 9.06203 7.90157 8.0001Z" fill="#FAFAFA"/>
</svg>
