<svg width="40" height="40" viewBox="0 0 40 40" fill="none" xmlns="http://www.w3.org/2000/svg">
<path d="M18.3334 6.24994C16.6758 6.24994 15.0861 6.90842 13.914 8.08052C12.7419 9.25262 12.0834 10.8423 12.0834 12.4999C12.0834 14.1575 12.7419 15.7473 13.914 16.9194C15.0861 18.0915 16.6758 18.7499 18.3334 18.7499C19.991 18.7499 21.5807 18.0915 22.7528 16.9194C23.9249 15.7473 24.5834 14.1575 24.5834 12.4999C24.5834 10.8423 23.9249 9.25262 22.7528 8.08052C21.5807 6.90842 19.991 6.24994 18.3334 6.24994ZM11.6667 22.0833C10.0091 22.0833 8.41943 22.7418 7.24733 23.9139C6.07523 25.086 5.41675 26.6757 5.41675 28.3333V30.3133C5.41675 31.5699 6.32675 32.6399 7.56675 32.8416C14.6967 34.0066 21.9701 34.0066 29.1001 32.8416C29.6998 32.7429 30.245 32.4347 30.6387 31.9717C31.0324 31.5087 31.2491 30.921 31.2501 30.3133V28.3333C31.2501 26.6757 30.5916 25.086 29.4195 23.9139C28.2474 22.7418 26.6577 22.0833 25.0001 22.0833H24.4334C24.1223 22.0844 23.8201 22.1322 23.5267 22.2266L22.0834 22.6983C19.6467 23.4938 17.0201 23.4938 14.5834 22.6983L13.1401 22.2266C12.8475 22.1328 12.5423 22.0844 12.2351 22.0833H11.6667ZM32.5001 10.4166C32.8316 10.4166 33.1495 10.5483 33.384 10.7827C33.6184 11.0171 33.7501 11.3351 33.7501 11.6666V14.5833H36.6667C36.9983 14.5833 37.3162 14.715 37.5506 14.9494C37.7851 15.1838 37.9167 15.5018 37.9167 15.8333C37.9167 16.1648 37.7851 16.4827 37.5506 16.7172C37.3162 16.9516 36.9983 17.0833 36.6667 17.0833H33.7501V19.9999C33.7501 20.3315 33.6184 20.6494 33.384 20.8838C33.1495 21.1182 32.8316 21.2499 32.5001 21.2499C32.1686 21.2499 31.8506 21.1182 31.6162 20.8838C31.3818 20.6494 31.2501 20.3315 31.2501 19.9999V17.0833H28.3334C28.0019 17.0833 27.684 16.9516 27.4495 16.7172C27.2151 16.4827 27.0834 16.1648 27.0834 15.8333C27.0834 15.5018 27.2151 15.1838 27.4495 14.9494C27.684 14.715 28.0019 14.5833 28.3334 14.5833H31.2501V11.6666C31.2501 11.3351 31.3818 11.0171 31.6162 10.7827C31.8506 10.5483 32.1686 10.4166 32.5001 10.4166Z" fill="#EABDE6"/>
</svg>
