<svg width="16" height="16" viewBox="0 0 16 16" fill="none" xmlns="http://www.w3.org/2000/svg">
<g clip-path="url(#clip0_5_5535)">
<mask id="mask0_5_5535" style="mask-type:luminance" maskUnits="userSpaceOnUse" x="0" y="0" width="16" height="16">
<path d="M16 0V16H0L0 0L16 0Z" fill="white"/>
</mask>
<g mask="url(#mask0_5_5535)">
<path fill-rule="evenodd" clip-rule="evenodd" d="M2.49917 6.00001L5.40517 2.26301C5.68375 1.90512 6.07685 1.65383 6.51862 1.55124C6.96039 1.44865 7.42401 1.50099 7.83179 1.69949C8.23957 1.89799 8.56675 2.2306 8.75852 2.64159C8.9503 3.05258 8.99501 3.51699 8.88517 3.95701L8.62417 5.00001L14.0572 5.00001C14.5357 4.99981 14.9975 5.17629 15.3539 5.49561C15.7103 5.81492 15.9362 6.25459 15.9884 6.73026C16.0406 7.20594 15.9153 7.68413 15.6366 8.07311C15.3579 8.4621 14.9454 8.73448 14.4782 8.83801L11.4992 9.50001L11.0422 12.244C10.9735 12.6565 10.8194 13.0501 10.5896 13.3996C10.3599 13.749 10.0596 14.0466 9.70812 14.2731C9.35661 14.4997 8.96161 14.6502 8.54848 14.7151C8.13535 14.7801 7.71322 14.7579 7.30917 14.65L2.99917 13.5L2.49917 6.00001ZM7.69617 13.2L4.42417 12.328L4.03417 6.47001L6.58917 3.18401C6.65669 3.09799 6.75166 3.03772 6.85824 3.01326C6.96482 2.9888 7.07657 3.00162 7.17485 3.04958C7.27312 3.09755 7.35197 3.17776 7.39826 3.27684C7.44454 3.37591 7.45545 3.48786 7.42917 3.59401L7.16917 4.63601L6.70317 6.50001L14.0572 6.50001C14.1665 6.49938 14.2721 6.53928 14.3538 6.612C14.4354 6.68471 14.4871 6.78509 14.4991 6.89375C14.511 7.0024 14.4823 7.11163 14.4184 7.20032C14.3545 7.28902 14.26 7.3509 14.1532 7.37401L11.1732 8.03601L10.1862 8.25601L10.0192 9.25301L9.56217 11.997C9.52783 12.2032 9.45077 12.4 9.33594 12.5746C9.2211 12.7493 9.07102 12.8981 8.89532 13.0113C8.71962 13.1246 8.52219 13.1999 8.31568 13.2324C8.10918 13.2649 7.89816 13.2539 7.69617 13.2ZM0.501171 13.303C0.518635 13.4988 0.612247 13.6799 0.761868 13.8073C0.911489 13.9348 1.10516 13.9984 1.30121 13.9845C1.49727 13.9706 1.68003 13.8803 1.81019 13.733C1.94034 13.5858 2.00749 13.3933 1.99717 13.197L1.49717 6.19701C1.49194 6.09751 1.46694 6.00004 1.42362 5.91031C1.3803 5.82058 1.31953 5.74038 1.24487 5.67439C1.17021 5.60841 1.08314 5.55796 0.988767 5.526C0.894389 5.49404 0.794589 5.48121 0.695196 5.48825C0.595803 5.49529 0.49881 5.52207 0.409882 5.56702C0.320953 5.61197 0.241873 5.67418 0.17726 5.75004C0.112648 5.82589 0.063798 5.91386 0.0335636 6.0088C0.00332928 6.10375 -0.0076828 6.20377 0.00117111 6.30301L0.501171 13.303Z" fill="#229B59"/>
</g>
</g>
<defs>
<clipPath id="clip0_5_5535">
<rect width="16" height="16" fill="white" transform="matrix(0 1 -1 0 16 0)"/>
</clipPath>
</defs>
</svg>
