<svg width="14" height="14" viewBox="0 0 14 14" fill="none" xmlns="http://www.w3.org/2000/svg">
<path d="M7.25843 10.674L6.99999 10.5179L6.74156 10.674L3.13384 12.8525C3.1268 12.8556 3.12134 12.8575 3.1174 12.8588C3.10848 12.8565 3.09741 12.8526 3.08387 12.8457L3.08676 12.8334L4.05276 8.72342L4.12191 8.42921L3.89356 8.23123L0.698557 5.46123L0.692784 5.45622L0.687265 5.45173C0.690516 5.44681 0.69356 5.4428 0.696321 5.43951C0.702 5.43733 0.711692 5.43414 0.726503 5.43085L4.9165 5.06512L5.21646 5.03894L5.33362 4.76157L6.97762 0.869571L6.97764 0.869579L6.97931 0.86553C6.97933 0.865475 6.97935 0.865421 6.97937 0.865366C6.98471 0.864557 6.99145 0.864014 7.00002 0.864014C7.00843 0.864014 7.01517 0.864537 7.02065 0.865349L7.02243 0.869571L8.66643 4.76157L8.78359 5.03893L9.08354 5.06512L13.2743 5.431C13.2898 5.43433 13.2992 5.43754 13.304 5.43945C13.3065 5.44201 13.3097 5.44576 13.3134 5.45119C13.3134 5.45126 13.3133 5.45133 13.3132 5.4514L13.3073 5.45622L13.3015 5.46123L10.1065 8.23123L9.87814 8.42921L9.94729 8.72342L10.9133 12.8334L10.9161 12.8454C10.9025 12.853 10.8919 12.8569 10.8839 12.8589C10.88 12.8576 10.8744 12.8556 10.8672 12.8526L7.25843 10.674Z" stroke="#FACD1B"/>
</svg>
