<svg width="16" height="20" viewBox="0 0 16 20" fill="none" xmlns="http://www.w3.org/2000/svg">
<path d="M1.50008 17.5833C1.50008 18.775 2.47508 19.75 3.66675 19.75H12.3334C13.5251 19.75 14.5001 18.775 14.5001 17.5833V6.75C14.5001 5.55833 13.5251 4.58333 12.3334 4.58333H3.66675C2.47508 4.58333 1.50008 5.55833 1.50008 6.75V17.5833ZM14.5001 1.33333H11.7917L11.0226 0.564167C10.8276 0.369167 10.5459 0.25 10.2642 0.25H5.73591C5.45425 0.25 5.17258 0.369167 4.97758 0.564167L4.20841 1.33333H1.50008C0.904248 1.33333 0.416748 1.82083 0.416748 2.41667C0.416748 3.0125 0.904248 3.5 1.50008 3.5H14.5001C15.0959 3.5 15.5834 3.0125 15.5834 2.41667C15.5834 1.82083 15.0959 1.33333 14.5001 1.33333Z" fill="#FAFAFA"/>
</svg>
