<svg width="20" height="20" viewBox="0 0 20 20" fill="none" xmlns="http://www.w3.org/2000/svg">
<path fill-rule="evenodd" clip-rule="evenodd" d="M5.64508 5.33333L6.32175 16.7067C6.33194 16.8762 6.40642 17.0354 6.53 17.1518C6.65358 17.2683 6.81694 17.3332 6.98675 17.3333H13.0134C13.1832 17.3332 13.3466 17.2683 13.4702 17.1518C13.5937 17.0354 13.6682 16.8762 13.6784 16.7067L14.3551 5.33333H5.64508ZM15.3576 5.33333L14.6767 16.7658C14.6515 17.1899 14.4652 17.5883 14.1561 17.8796C13.8469 18.1709 13.4382 18.3332 13.0134 18.3333H6.98675C6.56195 18.3332 6.15323 18.1709 5.84408 17.8796C5.53493 17.5883 5.34869 17.1899 5.32341 16.7658L4.64258 5.33333H2.91675V4.75C2.91675 4.63949 2.96065 4.53351 3.03879 4.45537C3.11693 4.37723 3.22291 4.33333 3.33341 4.33333H16.6667C16.7773 4.33333 16.8832 4.37723 16.9614 4.45537C17.0395 4.53351 17.0834 4.63949 17.0834 4.75V5.33333H15.3576ZM11.6667 2.5C11.7773 2.5 11.8832 2.5439 11.9614 2.62204C12.0395 2.70018 12.0834 2.80616 12.0834 2.91667V3.5H7.91675V2.91667C7.91675 2.80616 7.96065 2.70018 8.03879 2.62204C8.11693 2.5439 8.22291 2.5 8.33342 2.5H11.6667ZM7.91675 7.5H8.91675L9.33342 15H8.33342L7.91675 7.5ZM11.0834 7.5H12.0834L11.6667 15H10.6667L11.0834 7.5Z" fill="#EF4444"/>
</svg>
