<svg width="40" height="40" viewBox="0 0 40 40" fill="none" xmlns="http://www.w3.org/2000/svg">
<path fill-rule="evenodd" clip-rule="evenodd" d="M19.9999 9.99996C19.2339 9.99996 18.4753 10.1508 17.7676 10.444C17.0599 10.7371 16.4168 11.1668 15.8751 11.7085C15.3335 12.2502 14.9038 12.8932 14.6106 13.601C14.3175 14.3087 14.1666 15.0672 14.1666 15.8333C14.1666 16.5993 14.3175 17.3579 14.6106 18.0656C14.9038 18.7733 15.3335 19.4164 15.8751 19.9581C16.4168 20.4998 17.0599 20.9294 17.7676 21.2226C18.4753 21.5157 19.2339 21.6666 19.9999 21.6666C21.547 21.6666 23.0307 21.052 24.1247 19.9581C25.2187 18.8641 25.8333 17.3804 25.8333 15.8333C25.8333 14.2862 25.2187 12.8025 24.1247 11.7085C23.0307 10.6145 21.547 9.99996 19.9999 9.99996ZM17.4999 23.3333C15.7318 23.3333 14.0361 24.0357 12.7859 25.2859C11.5356 26.5362 10.8333 28.2318 10.8333 30C10.8333 30.884 11.1844 31.7319 11.8096 32.357C12.4347 32.9821 13.2825 33.3333 14.1666 33.3333H25.8333C26.7173 33.3333 27.5652 32.9821 28.1903 32.357C28.8154 31.7319 29.1666 30.884 29.1666 30C29.1666 28.2318 28.4642 26.5362 27.214 25.2859C25.9637 24.0357 24.268 23.3333 22.4999 23.3333H17.4999ZM28.8666 18.1733C29.3964 16.1555 29.2234 14.0175 28.3761 12.1111C27.5288 10.2048 26.0577 8.64374 24.2049 7.68496C24.9109 7.20248 25.7144 6.88114 26.5584 6.74368C27.4025 6.60622 28.2664 6.65601 29.089 6.88952C29.9116 7.12303 30.6729 7.53455 31.3188 8.09494C31.9647 8.65533 32.4796 9.35088 32.8268 10.1323C33.1741 10.9138 33.3453 11.762 33.3283 12.617C33.3113 13.472 33.1066 14.3127 32.7286 15.0798C32.3505 15.8468 31.8085 16.5214 31.1408 17.0557C30.4732 17.59 29.6962 17.971 28.8649 18.1716L28.8666 18.1733ZM32.4999 30H33.3333C34.2173 30 35.0652 29.6488 35.6903 29.0236C36.3154 28.3985 36.6666 27.5507 36.6666 26.6666C36.6666 24.8985 35.9642 23.2028 34.714 21.9526C33.4637 20.7023 31.768 20 29.9999 20H28.1666C27.9399 20.4439 27.6774 20.8687 27.3816 21.27C28.9341 22.1383 30.2269 23.4051 31.1266 24.9397C32.0263 26.4743 32.5004 28.2211 32.4999 30ZM6.66659 12.5C6.66633 11.4379 6.95601 10.396 7.50438 9.48651C8.05276 8.57702 8.83902 7.8345 9.77837 7.33901C10.7177 6.84352 11.7745 6.61388 12.8348 6.67484C13.895 6.73581 14.9186 7.08507 15.7949 7.68496C13.9403 8.64167 12.4677 10.2025 11.6204 12.1096C10.7731 14.0166 10.6018 16.1557 11.1349 18.1733C9.86125 17.8667 8.72784 17.1404 7.91727 16.1112C7.1067 15.0821 6.66615 13.81 6.66659 12.5ZM11.8333 20H9.99992C8.23181 20 6.53612 20.7023 5.28587 21.9526C4.03563 23.2028 3.33325 24.8985 3.33325 26.6666C3.33325 27.5507 3.68444 28.3985 4.30956 29.0236C4.93468 29.6488 5.78253 30 6.66659 30H7.49992C7.49947 28.2211 7.97355 26.4743 8.87326 24.9397C9.77297 23.4051 11.0657 22.1383 12.6183 21.27C12.3225 20.8687 12.0599 20.4439 11.8333 20Z" fill="#FAC67A"/>
</svg>
