<svg width="186" height="28" viewBox="0 0 186 28" fill="none" xmlns="http://www.w3.org/2000/svg">
<path d="M19.2915 22.7185C19.3052 22.7185 19.3196 22.7208 19.333 22.7181C20.2617 22.5392 21.1468 22.2436 21.9865 21.8262C22.0344 21.8023 22.0718 21.7711 22.1036 21.7295C22.3229 21.4429 22.5297 21.1485 22.7099 20.8381C23.1278 20.1178 23.4802 19.3688 23.8015 18.6059C24.0341 18.0534 24.2423 17.4941 24.3598 16.9076C24.4075 16.6698 24.436 16.431 24.398 16.1906C24.3656 15.9859 24.2284 15.9348 24.0502 16.0524C23.9593 16.1124 23.8829 16.1874 23.8104 16.2664C23.5669 16.5316 23.3788 16.8319 23.2047 17.1401C22.8343 17.7957 22.4708 18.4547 22.0979 19.1091C21.3522 20.4179 20.4574 21.6228 19.326 22.6613C19.3093 22.6765 19.2887 22.6898 19.2915 22.7185Z" fill="#FAFAFA"/>
<path d="M19.0818 19.8459C19.0533 19.8956 19.0201 19.9427 18.9891 19.9909C18.2806 21.0876 17.4154 22.0478 16.4402 22.9115C16.2689 23.0633 16.0889 23.2051 15.8909 23.3495C15.9137 23.3638 15.9172 23.3676 15.9214 23.3683C16.6837 23.5139 17.4514 23.5244 18.2223 23.4607C18.2715 23.4566 18.2979 23.4309 18.3271 23.3975C18.7308 22.9369 19.1245 22.4681 19.4782 21.9673C20.083 21.1105 20.653 20.2325 21.0769 19.2688C21.3951 18.5454 21.67 17.8066 21.8059 17.0239C21.8534 16.7501 21.8748 16.4734 21.8242 16.1961C21.8102 16.1196 21.7832 16.0486 21.7349 15.9873C21.6722 15.9079 21.6174 15.8922 21.5207 15.9232C21.4609 15.9424 21.4079 15.9749 21.3555 16.0085C21.1402 16.1463 20.9934 16.347 20.8573 16.5562C20.4359 17.2037 20.1363 17.9154 19.7809 18.5979C19.7612 18.6355 19.147 19.7322 19.0818 19.8459Z" fill="#FAFAFA"/>
<path d="M12.1637 16.4676C12.7515 16.7237 13.3646 16.8152 14.0009 16.7307C14.6817 16.6403 15.2861 16.3725 15.8162 15.9361C16.135 15.6737 16.4386 15.3957 16.659 15.0422C17.2099 14.1587 17.5042 13.1952 17.5462 12.1546C17.5707 11.5459 17.5357 10.9407 17.4563 10.3369C17.3638 9.63372 17.2281 8.94107 17.0055 8.26607C16.5766 6.96581 15.9972 5.73559 15.2925 4.56336C14.957 4.00527 14.6461 3.43469 14.388 2.83637C14.1645 2.31817 13.9423 1.79963 13.8111 1.24761C13.7615 1.03889 13.7052 0.831427 13.6283 0.618347C13.5837 0.671073 13.5816 0.720817 13.5678 0.765863C13.2525 1.79562 12.8817 2.80428 12.4367 3.78566C11.935 4.89209 11.3964 5.98042 10.8477 7.06404C10.5431 7.6658 10.2516 8.27512 10.0252 8.91046C9.72216 9.76106 9.54048 10.641 9.48272 11.5434C9.45395 11.9932 9.47011 12.443 9.54633 12.8881C9.66817 13.5999 9.93696 14.2549 10.3176 14.8668C10.7684 15.5916 11.3816 16.1271 12.1637 16.4676Z" fill="#FAFAFA"/>
<path d="M17.3933 18.4061C17.7997 18.3777 17.9474 18.5919 18.3534 18.6198C18.4117 18.6238 18.6671 18.2093 18.6898 18.16C18.9151 17.6715 19.0921 17.1676 19.1683 16.6329C19.1908 16.475 19.181 16.3167 19.1152 16.168C19.0477 16.0155 18.9308 15.9684 18.7753 16.0259C18.7206 16.0461 18.6746 16.0806 18.6312 16.1183C18.544 16.1938 18.4703 16.2817 18.4018 16.3742C18.2223 16.6169 18.0644 16.8733 17.9154 17.1354C17.7264 17.4679 17.5365 17.8 17.3477 18.1328C17.3344 18.1561 17.3085 18.1772 17.3243 18.2133C17.336 18.216 17.3806 18.407 17.3933 18.4061Z" fill="#FAFAFA"/>
<path d="M26.666 20.8581C26.6002 20.8438 26.5334 20.8425 26.466 20.8475C26.2297 20.8651 26.0064 20.9348 25.7871 21.0187C25.3844 21.1727 25.0014 21.3688 24.6182 21.565C23.7794 21.9942 22.9612 22.4617 22.1314 22.9076C20.8865 23.5765 19.5713 24.0079 18.1537 24.1111C17.318 24.172 16.4906 24.1343 15.668 23.978C14.2606 23.7104 12.5904 23.2407 11.3486 22.5256C11.2518 22.4699 14.2288 21.3746 16.211 20.7223C16.9332 20.4845 17.9168 20.1923 18.6353 19.94C18.8564 19.8624 19.0756 19.7791 19.2764 19.6555C19.3541 19.6077 19.429 19.5557 19.4855 19.4826C19.5951 19.3413 19.5663 19.1154 19.4316 19C19.3841 18.9592 19.235 18.8546 19.0342 18.8247C18.5378 18.7508 18.0377 18.838 17.5407 18.856C16.7328 18.8851 15.9277 18.9657 15.1197 18.9995C14.125 19.0411 13.1308 19.0749 12.1354 19.0228C11.5284 18.9909 10.9236 18.9367 10.3208 18.8597C9.69941 18.7804 9.07931 18.6916 8.45818 18.611C7.48884 18.4851 6.51914 18.4944 5.55518 18.6515C4.8286 18.7699 4.13801 19.0056 3.49236 19.3669C2.6029 19.8647 2.03186 20.615 1.73969 21.5812C1.57235 22.1347 1.59057 22.6994 1.72078 23.2561C1.90669 24.051 2.24758 24.7678 2.81266 25.3732C3.30529 25.9012 3.87565 26.3193 4.50916 26.6575C5.60585 27.243 6.78461 27.5749 8.00383 27.7757C9.02131 27.9431 10.0482 27.996 11.1894 27.9999C11.3605 27.9951 11.6428 27.99 11.9249 27.9788C12.7859 27.9445 13.6445 27.8804 14.4955 27.7407C16.095 27.4781 17.6511 27.0627 19.1604 26.4617C21.1318 25.6766 22.9797 24.6795 24.6667 23.3881C25.2147 22.9685 25.7403 22.5247 26.2248 22.0328C26.3963 21.8587 26.5556 21.674 26.6876 21.4672C26.7603 21.353 26.8163 21.2314 26.8357 21.0968C26.8546 20.9658 26.796 20.8865 26.666 20.8581Z" fill="#FAFAFA"/>
<path d="M16.5133 11.7241C16.5228 12.8543 16.29 13.9219 15.7362 14.9194C15.352 15.6113 14.7987 16.1209 14.136 16.5259C13.5321 16.8949 12.8674 17.0527 12.1651 17.0466C11.3973 17.04 10.7025 16.7919 10.0622 16.3772C9.3643 15.9252 8.8673 15.2999 8.48791 14.5694C8.02519 13.6785 7.81715 12.7312 7.86013 11.731C7.91504 10.4559 8.20537 9.23591 8.7277 8.06907C9.10698 7.2218 9.53806 6.40043 9.94783 5.56828C10.6898 4.06171 11.395 2.53955 11.8889 0.929126C11.9576 0.705272 12.0175 0.478667 12.0814 0.253323C12.0918 0.21653 12.0999 0.178934 12.1127 0.142943C12.1468 0.0459744 12.2035 0.000813651 12.2879 1.13066e-05C12.3723 -0.000791038 12.4199 0.041046 12.4565 0.14558C12.5833 0.50675 12.6876 0.874796 12.78 1.24571C12.9032 1.74018 13.1033 2.20531 13.3022 2.67159C13.5541 3.26223 13.8559 3.82674 14.1872 4.37634C14.888 5.53928 15.4697 6.75782 15.9073 8.04478C16.1594 8.78614 16.3179 9.54677 16.4162 10.3222C16.4755 10.7879 16.515 11.2543 16.5133 11.7241ZM12.3002 0.618505C12.2556 0.67123 12.2534 0.720975 12.2397 0.766021C11.9244 1.79577 11.5536 2.80443 11.1086 3.78582C10.6069 4.89225 10.0683 5.98057 9.51961 7.0642C9.21495 7.66595 8.92347 8.27528 8.69709 8.91062C8.39404 9.76122 8.21236 10.6412 8.15459 11.5436C8.12582 11.9933 8.14199 12.4431 8.21821 12.8883C8.34005 13.6001 8.60883 14.255 8.98949 14.867C9.44018 15.5915 10.0534 16.127 10.8355 16.4677C11.4232 16.7237 12.0363 16.8152 12.6727 16.7307C13.3534 16.6403 13.9578 16.3725 14.488 15.9362C14.8067 15.6737 15.1103 15.3957 15.3308 15.0423C15.8816 14.1588 16.176 13.1953 16.218 12.1546C16.2426 11.546 16.2076 10.9408 16.1282 10.337C16.0357 9.63376 15.9 8.94111 15.6774 8.26611C15.2485 6.96585 14.6691 5.73563 13.9644 4.5634C13.6289 4.00532 13.318 3.43473 13.0599 2.83641C12.8364 2.31821 12.6141 1.79967 12.483 1.24766C12.4334 1.03905 12.3771 0.831584 12.3002 0.618505Z" fill="black"/>
<path d="M12.1162 16.173C11.9745 16.1705 11.85 16.1692 11.7285 16.1377C11.7008 16.1305 11.6725 16.1243 11.6461 16.1136C11.5638 16.0803 11.5245 16.0186 11.5389 15.9497C11.5548 15.8739 11.62 15.8322 11.7155 15.8427C11.8007 15.8519 11.8832 15.8809 11.9703 15.8809C12.8329 15.8805 13.5536 15.5658 14.1126 14.9037C14.4453 14.5096 14.6363 14.0396 14.8038 13.5594C15.0265 12.921 15.1155 12.2601 15.1231 11.5864C15.1235 11.5578 15.1203 11.5289 15.1229 11.5005C15.1291 11.4356 15.1684 11.3949 15.229 11.38C15.2916 11.3646 15.3405 11.3932 15.3769 11.444C15.4061 11.4848 15.4127 11.5313 15.4123 11.5803C15.4043 12.671 15.1696 13.7068 14.6298 14.6594C14.1594 15.4895 13.4277 15.9601 12.4979 16.1354C12.4322 16.1478 12.3658 16.1576 12.2993 16.1639C12.2329 16.1705 12.1658 16.1708 12.1162 16.173Z" fill="black"/>
<path d="M15.3445 10.4481C15.3451 10.5496 15.2956 10.6175 15.2152 10.6252C15.132 10.6331 15.0741 10.5815 15.0597 10.4757C15.0251 10.2202 14.9967 9.96394 14.9613 9.70868C14.8846 9.15792 14.7203 8.62872 14.5609 8.09837C14.5334 8.00702 14.5081 7.91486 14.4832 7.82271C14.4464 7.68597 14.4714 7.60905 14.5594 7.58292C14.6507 7.55587 14.7175 7.6055 14.7558 7.73961C14.8593 8.10215 14.9715 8.46218 15.0706 8.8261C15.213 9.349 15.2854 9.88267 15.3418 10.4196C15.3429 10.4291 15.3437 10.4386 15.3445 10.4481Z" fill="black"/>
<path d="M13.7942 5.48145C13.8096 5.51228 13.8317 5.55446 13.8516 5.59768C14.0442 6.01329 14.2365 6.42914 14.4284 6.84509C14.4423 6.87524 14.4572 6.90619 14.4634 6.93839C14.4771 7.00889 14.4474 7.06562 14.3878 7.09187C14.3224 7.12064 14.2648 7.10414 14.2202 7.05221C14.1958 7.02379 14.1782 6.98837 14.1623 6.95398C13.9635 6.52542 13.7654 6.09651 13.5677 5.66748C13.5558 5.64169 13.5462 5.61407 13.5408 5.58621C13.5273 5.51653 13.5558 5.46414 13.6168 5.43159C13.6708 5.40271 13.7407 5.42116 13.7942 5.48145Z" fill="black"/>
<path d="M18.0184 22.6465C18.2168 22.4653 18.3926 22.2639 18.5634 22.0581C19.2009 21.2899 19.7571 20.4658 20.2346 19.5899C20.6627 18.8046 21.0787 18.0128 21.5026 17.2253C21.6684 16.9173 21.854 16.6216 22.0832 16.3554C22.1676 16.2573 22.2584 16.1657 22.3623 16.0875C22.7278 15.8124 23.1211 15.9707 23.1858 16.4241C23.2156 16.6331 23.2094 16.8445 23.177 17.0537C23.091 17.609 22.9337 18.1449 22.736 18.6699C22.3751 19.629 21.9661 20.5662 21.4746 21.4661C21.3898 21.6213 21.2945 21.7707 21.2049 21.9233C21.1895 21.9498 21.1583 21.9709 21.1717 22.024C21.2374 21.9884 21.2992 21.9559 21.36 21.922C22.0747 21.5243 22.7924 21.1323 23.5244 20.7675C23.931 20.5648 24.3406 20.3677 24.7851 20.2582C24.9624 20.2146 25.1414 20.1843 25.3249 20.2076C25.6789 20.2525 25.8524 20.4968 25.7798 20.8461C25.7431 21.0226 25.6622 21.179 25.5618 21.3263C25.4103 21.5485 25.232 21.7483 25.0424 21.9383C24.2856 22.6968 23.438 23.3428 22.5579 23.9492C21.0572 24.9835 19.4374 25.7851 17.7433 26.4482C16.4607 26.9501 15.1413 27.3122 13.7897 27.5675C12.3169 27.8457 10.8299 27.946 9.33437 27.9265C8.17487 27.9115 7.02179 27.8148 5.88658 27.564C4.88354 27.3425 3.9127 27.028 3.00616 26.5343C2.41025 26.2098 1.86695 25.8178 1.38703 25.3338C0.737594 24.6788 0.336765 23.8924 0.119444 23.0071C-0.0132866 22.4667 -0.0479016 21.9142 0.0804735 21.3707C0.304442 20.4232 0.783097 19.6316 1.582 19.0491C2.21093 18.5906 2.91882 18.3132 3.66443 18.1182C4.23238 17.9696 4.81293 17.9169 5.39692 17.8923C6.19846 17.8587 6.99359 17.9251 7.78482 18.0483C9.54768 18.3229 11.3178 18.4692 13.1041 18.3849C13.9023 18.3472 14.7001 18.3062 15.4974 18.2516C15.583 18.2457 15.6323 18.2156 15.6775 18.1425C15.8964 17.7882 16.0963 17.4232 16.3 17.0603C16.471 16.7554 16.6523 16.4573 16.8623 16.1773C16.9458 16.066 17.0373 15.9619 17.1465 15.8746C17.2064 15.8265 17.2702 15.7856 17.3429 15.7581C17.6423 15.645 17.9133 15.7522 18.0463 16.0428C18.1387 16.2446 18.1542 16.4586 18.1242 16.6754C18.0554 17.1718 17.9007 17.6433 17.7024 18.1016C17.6318 18.2649 17.631 18.2654 17.8025 18.3068C17.9098 18.3327 18.014 18.3669 18.1157 18.4093C18.2052 18.4467 18.2086 18.4473 18.2539 18.3567C18.4077 18.0486 18.5581 17.7389 18.7118 17.4308C18.889 17.0753 19.0736 16.7238 19.2924 16.3916C19.4539 16.1467 19.631 15.9157 19.8855 15.7572C19.959 15.7115 20.0343 15.6712 20.1172 15.6451C20.3157 15.5825 20.486 15.6319 20.6191 15.7919C20.751 15.9507 20.7923 16.1406 20.8046 16.3394C20.8312 16.7695 20.7615 17.1894 20.6491 17.6016C20.3312 18.7675 19.8513 19.8629 19.2108 20.8888C18.8356 21.4896 18.4402 22.0762 18.0184 22.6465ZM9.86094 27.6437C10.0321 27.6389 10.3144 27.6338 10.5963 27.6226C11.4574 27.5883 12.3161 27.5243 13.1669 27.3847C14.7665 27.1221 16.3226 26.7067 17.8319 26.1056C19.8032 25.3206 21.6512 24.3235 23.3381 23.0321C23.8862 22.6124 24.4118 22.1686 24.8963 21.6768C25.0678 21.5027 25.2271 21.3179 25.359 21.1111C25.4318 20.997 25.4877 20.8754 25.5072 20.7408C25.5261 20.6095 25.4677 20.5302 25.3376 20.5019C25.2718 20.4876 25.205 20.4864 25.1376 20.4914C24.9012 20.5089 24.678 20.5786 24.4587 20.6625C24.056 20.8164 23.673 21.0127 23.2898 21.2088C22.451 21.638 21.6328 22.1056 20.803 22.5514C19.5581 23.2204 18.2429 23.6517 16.8253 23.7548C15.9896 23.8157 15.1621 23.778 14.3396 23.6217C12.9322 23.3543 11.6042 22.87 10.3624 22.1549C10.2655 22.0992 10.1939 22.1027 10.0995 22.1464C9.43088 22.4551 8.76264 22.7642 8.11733 23.1201C8.07137 23.1454 8.02517 23.1725 7.976 23.1898C7.90253 23.2158 7.83605 23.1891 7.80235 23.1287C7.76877 23.0685 7.78218 22.9971 7.84235 22.9493C7.87571 22.9228 7.91537 22.904 7.95285 22.8832C8.40858 22.6296 8.87692 22.4012 9.34801 22.178C11.1955 21.3031 13.1107 20.6248 15.1078 20.1813C15.85 20.0165 16.5884 19.836 17.3069 19.5837C17.528 19.5061 17.7472 19.4228 17.948 19.2992C18.0257 19.2514 18.1006 19.1994 18.1571 19.1264C18.2666 18.985 18.2545 18.8659 18.1199 18.7506C18.0724 18.7098 18.0181 18.68 17.9599 18.6565C17.8753 18.6224 17.7882 18.597 17.6992 18.5787C17.2077 18.4775 16.7093 18.482 16.2123 18.4998C15.4043 18.529 14.5992 18.6095 13.7913 18.6433C12.7966 18.685 11.8023 18.7188 10.807 18.6666C10.2 18.6347 9.59513 18.5805 8.99234 18.5035C8.37098 18.4242 7.75089 18.3355 7.12976 18.2549C6.16041 18.129 5.19072 18.1383 4.22676 18.2955C3.50018 18.4139 2.80959 18.6495 2.16393 19.0108C1.27448 19.5086 0.703437 20.2589 0.411269 21.2251C0.243923 21.7786 0.262146 22.3432 0.392356 22.8999C0.57827 23.6948 0.919152 24.4116 1.48423 25.0171C1.97687 25.545 2.54722 25.9631 3.18073 26.3014C4.27742 26.8869 5.45618 27.2187 6.6754 27.4194C7.69289 27.587 8.71977 27.6398 9.86094 27.6437ZM14.5624 23.3496C14.5853 23.3639 14.5888 23.3677 14.5929 23.3684C15.3553 23.5139 16.123 23.5245 16.8938 23.4607C16.9431 23.4567 16.9695 23.4309 16.9987 23.3976C17.4024 22.9369 17.7961 22.4681 18.1497 21.9673C18.7546 21.1106 19.3246 20.2326 19.7485 19.2688C20.0666 18.5453 20.3416 17.8066 20.4774 17.024C20.525 16.7502 20.5463 16.4735 20.4958 16.1962C20.4818 16.1196 20.4548 16.0487 20.4065 15.9874C20.3438 15.9079 20.289 15.8922 20.1923 15.9233C20.1324 15.9424 20.0795 15.975 20.0271 16.0086C19.8117 16.1463 19.665 16.347 19.5288 16.5562C19.1075 17.2037 18.8079 17.9155 18.4524 18.598C18.4328 18.6357 18.4344 18.6649 18.4526 18.7043C18.5686 18.9564 18.5277 19.1669 18.3272 19.3691C18.2388 19.4581 18.1392 19.5366 18.0251 19.5851C17.8976 19.6393 17.8188 19.7325 17.7535 19.8462C17.7249 19.8959 17.6918 19.943 17.6608 19.9912C16.9523 21.0879 16.0871 22.048 15.1119 22.9118C14.9404 23.0633 14.7604 23.2051 14.5624 23.3496ZM17.7914 23.3347C17.8051 23.3347 17.8195 23.3371 17.8329 23.3343C18.7617 23.1458 19.6467 22.834 20.4864 22.394C20.5343 22.3689 20.5717 22.336 20.6035 22.2922C20.8228 21.9899 21.0296 21.6796 21.2098 21.3524C21.6278 20.593 21.9801 19.8033 22.3014 18.999C22.5341 18.4166 22.7422 17.8269 22.8597 17.2085C22.9074 16.958 22.9359 16.706 22.8979 16.4527C22.8655 16.237 22.7283 16.183 22.5501 16.307C22.4592 16.3703 22.3828 16.4494 22.3103 16.5326C22.0668 16.8123 21.8787 17.1287 21.7046 17.4537C21.3342 18.1449 20.9705 18.8397 20.5978 19.5295C19.8521 20.9093 18.9573 22.1796 17.8259 23.2744C17.8092 23.2904 17.7887 23.3044 17.7914 23.3347ZM16.6606 20.0943C16.5579 20.1214 16.4892 20.1386 16.4211 20.1575C15.8684 20.3103 15.3076 20.429 14.7489 20.5566C14.6449 20.5803 14.569 20.6274 14.5055 20.713C14.4145 20.8358 14.3154 20.9528 14.2148 21.068C13.6722 21.6894 13.0982 22.276 12.3843 22.7063C12.3639 22.7186 12.343 22.7305 12.3434 22.7591C12.3512 22.7638 12.3589 22.7701 12.3676 22.7736C12.8978 22.9827 13.4457 23.132 14.0009 23.2569C14.0682 23.2721 14.1177 23.2549 14.1696 23.2104C14.3769 23.0331 14.5762 22.8475 14.7697 22.6555C15.3451 22.0844 15.8664 21.4691 16.2897 20.7752C16.4188 20.5637 16.5364 20.3453 16.6606 20.0943ZM10.5749 21.9399C11.0089 22.195 11.4343 22.4003 11.8705 22.5843C11.9337 22.6111 11.9852 22.6081 12.045 22.5732C12.2932 22.4286 12.536 22.2759 12.761 22.0971C13.246 21.7117 13.6706 21.2648 14.0705 20.7937C14.0838 20.778 14.1083 20.763 14.0816 20.7223C12.901 21.0597 11.7351 21.4486 10.5749 21.9399ZM15.996 18.2133C16.0075 18.2159 16.0208 18.2223 16.0336 18.2214C16.4401 18.193 16.8464 18.2002 17.2524 18.2281C17.3108 18.2321 17.3387 18.2094 17.3615 18.1601C17.5868 17.6716 17.7638 17.1678 17.84 16.633C17.8625 16.4751 17.8527 16.3168 17.787 16.1681C17.7194 16.0156 17.6025 15.9684 17.447 16.026C17.3923 16.0462 17.3464 16.0807 17.3029 16.1184C17.2157 16.194 17.142 16.2818 17.0736 16.3743C16.8941 16.617 16.7361 16.8734 16.5871 17.1355C16.3981 17.468 16.2082 17.8001 16.0194 18.1328C16.0061 18.1561 15.9802 18.1772 15.996 18.2133ZM16.3967 21.1686C16.6393 20.9607 17.295 20.0779 17.3681 19.871C17.2722 19.9016 17.1826 19.9308 17.0926 19.9587C17.0521 19.9713 17.0324 20.0025 17.015 20.0375C16.8228 20.4209 16.6209 20.799 16.3967 21.1686Z" fill="black"/>
<path d="M7.48708 1.55829L7.68446 2.37106L8.49723 2.56844L7.68446 2.76582L7.48708 3.57859L7.2897 2.76582L6.47693 2.56844L7.2897 2.37106L7.48708 1.55829Z" fill="#FAFAFA"/>
<path d="M19.1795 5.41821L19.4888 6.69176L20.7623 7.00101L19.4888 7.31037L19.1795 8.58381L18.8701 7.31037L17.5967 7.00101L18.8701 6.69176L19.1795 5.41821Z" fill="#FAFAFA"/>
<path d="M4.75754 10.6322L5.22084 12.5397L7.12835 13.003L5.22084 13.4663L4.75754 15.3737L4.29424 13.4663L2.38684 13.003L4.29424 12.5397L4.75754 10.6322Z" fill="#FAFAFA"/>
<path d="M32.179 20V6.26H37.199C41.919 6.26 45.239 9.1 45.239 13.12C45.239 17.14 41.919 20 37.199 20H32.179ZM35.599 16.9H37.719C40.059 16.9 41.739 15.32 41.739 13.12C41.739 10.92 40.059 9.36 37.719 9.36H35.599V16.9ZM52.1143 17.5C52.9143 17.5 53.8343 17.16 54.4543 16.62L56.4543 18.64C55.5343 19.58 53.7543 20.24 52.2143 20.24C49.0143 20.24 46.6543 17.98 46.6543 14.8C46.6543 11.66 48.9343 9.42 52.0543 9.42C55.3343 9.42 57.2543 11.82 57.2543 15.76H49.8743C50.1943 16.8 51.0143 17.5 52.1143 17.5ZM52.1143 12.14C51.0943 12.14 50.2743 12.74 49.9143 13.7H54.1143C53.8343 12.76 53.1343 12.14 52.1143 12.14ZM62.3902 11.58C63.0702 10.24 64.2902 9.42 65.7902 9.42V12.24C63.6902 12.24 62.4102 13.44 62.4102 15.34L62.3902 15.3V20H59.0102V9.66H62.3902V11.58ZM80.0115 9.42C82.1715 9.42 83.8915 11.08 83.8915 13.42V20.02H80.6515V14.02C80.6515 12.98 79.9715 12.24 79.0115 12.24C77.9915 12.24 77.2715 12.94 77.2715 13.88V20.02H74.0315V14.02C74.0315 12.98 73.3515 12.24 72.3915 12.24C71.3715 12.24 70.6515 12.94 70.6515 13.88V20H67.2715V9.66H70.6515V11C71.1515 10.02 72.1515 9.42 73.4115 9.42C74.7915 9.42 75.9915 10.1 76.6715 11.2C77.2315 10.12 78.4915 9.42 80.0115 9.42ZM90.9396 9.42C93.5996 9.42 95.5996 11.1 95.5996 13.86V20H92.3396V19.12C91.6196 19.84 90.5396 20.24 89.4796 20.24C87.2796 20.24 85.5396 18.9 85.5396 16.94C85.5396 14.92 87.4796 13.5 89.9196 13.5C90.6796 13.5 91.5396 13.68 92.3396 14V13.86C92.3396 12.76 91.4996 11.96 90.0796 11.96C89.0996 11.96 88.3596 12.26 87.4796 12.72L86.4196 10.6C87.8596 9.88 89.3396 9.42 90.9396 9.42ZM90.2996 18.16C91.2996 18.16 92.1996 17.68 92.3396 16.9V15.8C91.8196 15.6 91.0996 15.46 90.3996 15.46C89.4796 15.46 88.7596 16.04 88.7596 16.84C88.7596 17.64 89.3996 18.16 90.2996 18.16ZM107.679 6.26H111.519L106.079 20H102.239L96.7993 6.26H100.639L104.159 15.16L107.679 6.26ZM114.559 8.4C113.559 8.4 112.759 7.58 112.759 6.6C112.759 5.66 113.559 4.84 114.559 4.84C115.539 4.84 116.319 5.66 116.319 6.6C116.319 7.58 115.539 8.4 114.559 8.4ZM112.839 20V9.66H116.219V20H112.839ZM122.581 20.24C120.841 20.24 119.041 19.66 117.781 18.68L119.141 16.5C120.101 17.18 121.421 17.68 122.661 17.68C123.401 17.68 123.821 17.44 123.821 17.04C123.821 16.54 123.141 16.34 122.121 16.1C120.121 15.64 118.261 15.12 118.241 12.88C118.241 10.9 119.861 9.42 122.421 9.42C123.961 9.42 125.461 9.96 126.621 10.74L125.381 12.96C124.481 12.38 123.361 11.94 122.421 11.94C121.801 11.94 121.361 12.22 121.361 12.54C121.361 13 121.801 13.1 123.021 13.42C124.861 13.86 126.921 14.46 126.921 16.82C126.921 18.9 125.241 20.24 122.581 20.24ZM130.399 8.4C129.399 8.4 128.599 7.58 128.599 6.6C128.599 5.66 129.399 4.84 130.399 4.84C131.379 4.84 132.159 5.66 132.159 6.6C132.159 7.58 131.379 8.4 130.399 8.4ZM128.679 20V9.66H132.059V20H128.679ZM139.621 20.24C136.501 20.24 133.881 17.76 133.881 14.82C133.881 11.88 136.501 9.42 139.621 9.42C142.741 9.42 145.361 11.88 145.361 14.82C145.361 17.76 142.741 20.24 139.621 20.24ZM139.621 17.42C141.001 17.42 142.161 16.22 142.161 14.82C142.161 13.42 141.001 12.24 139.621 12.24C138.241 12.24 137.081 13.42 137.081 14.82C137.081 16.22 138.241 17.42 139.621 17.42ZM153.496 9.42C155.716 9.42 157.296 11.08 157.296 13.42V20H154.056V14.18C154.056 13.04 153.336 12.24 152.296 12.24C151.256 12.24 150.476 13.02 150.476 14.04L150.456 13.98V20H147.076V9.66H150.456V10.84C151.096 9.96 152.196 9.42 153.496 9.42ZM174.925 20L174.125 18H168.685L167.885 20H164.045L169.485 6.26H173.325L178.765 20H174.925ZM169.745 15.32H173.065L171.405 11.1L169.745 15.32ZM180.245 20V6.26H183.665V20H180.245Z" fill="#FAFAFA"/>
</svg>
