<svg width="235" height="28" viewBox="0 0 235 28" fill="none" xmlns="http://www.w3.org/2000/svg">
<path d="M27.4357 7.98085C27.433 8.05169 27.4275 8.12253 27.4221 8.19338C27.354 9.06803 27.0978 9.85276 26.7899 10.5776C26.1632 12.0299 25.275 13.2587 24.3186 14.3895C22.3812 16.6429 20.0734 18.4658 17.6102 20.0052C15.1306 21.5175 12.4658 22.7627 9.58573 23.4848C8.99718 23.6265 8.40046 23.7518 7.79284 23.8444V21.4058C7.79284 21.3595 7.79012 21.3159 7.78467 21.2723C7.73834 20.839 7.46042 20.4739 7.07622 20.305C6.92909 20.2396 6.76288 20.2042 6.59122 20.2042H1.20162C0.621248 20.2042 0.138965 19.7927 0.0272493 19.2478C0.00817597 19.1687 0 19.0843 0 18.9998V8.99718C0 8.33234 0.53678 7.79556 1.20162 7.79556H6.59122C7.25606 7.79556 7.79284 7.25606 7.79284 6.59394V1.20162C7.79284 0.539504 8.33234 0 8.99718 0H18.9998C19.6647 0 20.2014 0.539504 20.2014 1.20162V6.59394C20.2014 7.25606 20.7409 7.79556 21.4031 7.79556H26.7954C27.0324 7.79556 27.2504 7.86368 27.4357 7.98085Z" fill="#FAFAFA"/>
<path d="M9.4277 21.4061C9.4277 21.2962 9.42143 21.1908 9.40862 21.084C9.29663 20.0848 8.65604 19.214 7.73425 18.8088C7.38385 18.6532 6.98658 18.5696 6.59121 18.5696H1.63513V9.43069H6.59121C8.15523 9.43069 9.4277 8.15823 9.4277 6.59421V1.63513H18.5666V6.59421C18.5666 8.15823 19.839 9.43069 21.403 9.43069H25.4845C25.4267 9.59282 25.3605 9.76121 25.2853 9.93859C24.8131 11.0329 24.1289 12.0827 23.0703 13.3342C21.4085 15.2669 19.3363 16.999 16.7437 18.6192C14.2356 20.1488 11.8348 21.2061 9.4277 21.8379V21.4061Z" fill="#299392"/>
<path d="M27.997 10.4879V19.0001C27.997 19.6649 27.4602 20.2044 26.7954 20.2044H21.4031C20.7409 20.2044 20.2014 20.7412 20.2014 21.4061V26.7957C20.2014 27.4605 19.6647 28 18.9998 28H8.99719C8.33235 28 7.79285 27.4605 7.79285 26.7957V24.9428C8.43317 24.8529 9.11163 24.7221 9.85004 24.5423C12.6075 23.8529 15.3323 22.6731 18.1878 20.9292C21.0189 19.1609 23.294 17.2535 25.1496 15.0928C26.3894 13.6296 27.2041 12.368 27.7926 11.0056C27.8689 10.8285 27.9371 10.6566 27.997 10.4879Z" fill="#FAFAFA"/>
<path d="M27.4357 7.98089C27.433 8.05173 27.4276 8.12258 27.4221 8.19342C27.354 9.06807 27.0979 9.85281 26.79 10.5776C26.1633 12.0299 25.275 13.2588 24.3186 14.3895C22.3813 16.6429 20.0734 18.4658 17.6102 20.0053C15.1307 21.5175 12.4658 22.7628 9.58577 23.4848C8.99722 23.6265 8.4005 23.7518 7.79287 23.8445C7.43321 23.899 7.07081 23.9426 6.70297 23.9671C6.16891 24.0107 5.62396 24.0189 5.06811 23.9862C4.28065 23.9371 3.46594 23.8145 2.65124 23.4821C1.84471 23.166 1.0191 22.5693 0.51774 21.7164C0.400575 21.5094 0.30249 21.2941 0.226196 21.0707C0.523196 21.2151 0.855614 21.2941 1.20166 21.2941H3.32426C3.84469 21.493 4.48501 21.5884 5.1553 21.5857C5.66211 21.5829 6.17981 21.5421 6.70297 21.4685C7.06264 21.4194 7.42231 21.3513 7.7847 21.2723C8.16617 21.1933 8.54491 21.0952 8.92365 20.9862C10.1852 20.6265 11.4332 20.1524 12.643 19.5884C13.8555 19.0325 15.038 18.3922 16.1797 17.6865C17.3241 16.9835 18.4249 16.2124 19.4685 15.3786C20.5148 14.5503 21.4957 13.6484 22.384 12.6811C23.2723 11.7193 24.0625 10.673 24.6101 9.58033C24.918 8.98088 25.1224 8.35418 25.1714 7.79561C25.2123 7.38689 25.1687 7.0136 25.027 6.7057C25.0134 6.67573 24.9998 6.64848 24.9834 6.61851C24.7764 6.25611 24.4249 5.93186 23.9126 5.71661C23.414 5.49317 22.8064 5.37056 22.1769 5.31334C21.8854 5.28882 21.5911 5.27792 21.2914 5.27792V3.58311C21.6047 3.55314 21.9208 3.53407 22.2423 3.53134C23.008 3.52317 23.8036 3.59946 24.6129 3.87466C25.414 4.13624 26.2586 4.66757 26.8009 5.4959C27.057 5.89099 27.2286 6.32968 27.3295 6.77109C27.4194 7.17981 27.4521 7.59125 27.4357 7.98089Z" fill="#272525"/>
<path d="M40.4424 25.2H34.157V2.79999H42.6489L45.9922 11.6263L47.4298 17.4101H47.8644L49.4024 11.6263L52.3779 2.79999H60.8698V25.2H54.5844V17.0089L54.9522 12.1946H54.5176L53.1468 17.3433L51.3415 22.8597H43.6853L41.88 17.3433L40.4758 12.1946H40.0412L40.4424 17.0089V25.2Z" fill="#FAFAFA"/>
<path d="M81.4326 25.2H63.3454V2.79999H81.4326V8.45014H69.6308V11.1582H80.9311V16.7749H69.6308V19.5498H81.4326V25.2Z" fill="#FAFAFA"/>
<path d="M93.0215 25.2H83.3594V2.79999H93.0215C100.377 2.79999 104.422 6.91223 104.422 14C104.422 21.0877 100.377 25.2 93.0215 25.2ZM92.6872 8.45014H89.6448V19.5498H92.6872C96.6322 19.5498 97.6352 18.714 97.6352 14C97.6352 9.28596 96.6322 8.45014 92.6872 8.45014Z" fill="#FAFAFA"/>
<path d="M129.362 25.2H111.275V2.79999H129.362V8.45014H117.56V11.1582H128.86V16.7749H117.56V19.5498H129.362V25.2Z" fill="#FAFAFA"/>
<path d="M137.044 25.2H129.755L136.074 14.0669V13.766L129.755 2.79999H137.144L141.223 10.0883H141.524L145.302 2.79999H152.59L146.338 13.6322V13.9331L152.59 25.2H145.201L141.122 17.9785H140.822L137.044 25.2Z" fill="#FAFAFA"/>
<path d="M159.547 25.2H153.261V2.79999H163.86C169.209 2.79999 172.652 5.90924 172.652 11.0579C172.652 16.3737 169.209 19.2824 163.86 19.2824H159.547V25.2ZM163.626 8.45014H159.547V13.6657H163.626C165.765 13.6657 166.367 13.2645 166.367 11.0579C166.367 8.85133 165.765 8.45014 163.626 8.45014Z" fill="#FAFAFA"/>
<path d="M192.016 25.2H173.928V2.79999H192.016V8.45014H180.214V11.1582H191.514V16.7749H180.214V19.5498H192.016V25.2Z" fill="#FAFAFA"/>
<path d="M200.228 25.2H193.942V2.79999H205.209C210.859 2.79999 213.534 5.20715 213.534 9.68715C213.534 13.231 212.163 15.4376 208.385 15.8722V16.1731C210.659 16.7749 211.562 18.2125 212.431 20.1182L214.771 25.2H207.449L205.243 20.5528C204.307 18.6137 203.872 18.0454 201.766 18.0454H200.228V25.2ZM200.228 8.45014V12.8298H204.975C206.747 12.8298 207.249 12.3283 207.249 10.5564C207.249 8.9182 206.747 8.45014 204.975 8.45014H200.228Z" fill="#FAFAFA"/>
<path d="M227.632 25.2H221.346V8.45014H214.459V2.79999H234.519V8.45014H227.632V25.2Z" fill="#FAFAFA"/>
</svg>
