<svg width="186" height="28" viewBox="0 0 186 28" fill="none" xmlns="http://www.w3.org/2000/svg">
<path d="M19.2915 22.7185C19.3052 22.7185 19.3196 22.7208 19.333 22.7181C20.2617 22.5392 21.1468 22.2436 21.9865 21.8262C22.0344 21.8023 22.0718 21.7711 22.1036 21.7295C22.3229 21.4429 22.5297 21.1485 22.7099 20.8381C23.1278 20.1178 23.4802 19.3688 23.8015 18.6059C24.0341 18.0534 24.2423 17.4941 24.3598 16.9076C24.4075 16.6698 24.436 16.431 24.398 16.1906C24.3656 15.9859 24.2284 15.9348 24.0502 16.0524C23.9593 16.1124 23.8829 16.1874 23.8104 16.2664C23.5669 16.5316 23.3788 16.8319 23.2047 17.1401C22.8343 17.7957 22.4708 18.4547 22.0979 19.1091C21.3522 20.4179 20.4574 21.6228 19.326 22.6613C19.3093 22.6765 19.2887 22.6898 19.2915 22.7185Z" fill="#299392"/>
<path d="M19.0818 19.8459C19.0533 19.8956 19.0201 19.9427 18.9891 19.9909C18.2806 21.0876 17.4154 22.0478 16.4402 22.9115C16.2689 23.0633 16.0889 23.2051 15.8909 23.3495C15.9137 23.3638 15.9172 23.3676 15.9214 23.3683C16.6837 23.5139 17.4514 23.5244 18.2223 23.4607C18.2715 23.4566 18.2979 23.4309 18.3271 23.3975C18.7308 22.9369 19.1245 22.4681 19.4782 21.9673C20.083 21.1105 20.653 20.2325 21.0769 19.2688C21.3951 18.5454 21.67 17.8066 21.8059 17.0239C21.8534 16.7501 21.8748 16.4734 21.8242 16.1961C21.8102 16.1196 21.7832 16.0486 21.7349 15.9873C21.6722 15.9079 21.6174 15.8922 21.5207 15.9232C21.4609 15.9424 21.4079 15.9749 21.3555 16.0085C21.1402 16.1463 20.9934 16.347 20.8573 16.5562C20.4359 17.2037 20.1363 17.9154 19.7809 18.5979C19.7612 18.6355 19.147 19.7322 19.0818 19.8459Z" fill="#299392"/>
<path d="M12.1636 16.4676C12.7513 16.7237 13.3645 16.8152 14.0008 16.7307C14.6816 16.6403 15.286 16.3725 15.8161 15.9361C16.1348 15.6737 16.4385 15.3957 16.6589 15.0422C17.2097 14.1587 17.5041 13.1952 17.546 12.1546C17.5706 11.5459 17.5356 10.9407 17.4562 10.3369C17.3637 9.63372 17.228 8.94107 17.0054 8.26607C16.5765 6.96581 15.9971 5.73559 15.2924 4.56336C14.9569 4.00527 14.646 3.43469 14.3879 2.83637C14.1644 2.31817 13.9421 1.79963 13.811 1.24761C13.7614 1.03889 13.7051 0.831427 13.6282 0.618347C13.5836 0.671073 13.5814 0.720817 13.5677 0.765863C13.2524 1.79562 12.8816 2.80428 12.4366 3.78566C11.9349 4.89209 11.3963 5.98042 10.8476 7.06404C10.5429 7.6658 10.2515 8.27512 10.0251 8.91046C9.72204 9.76106 9.54036 10.641 9.48259 11.5434C9.45382 11.9932 9.46999 12.443 9.54621 12.8881C9.66805 13.5999 9.93684 14.2549 10.3175 14.8668C10.7683 15.5916 11.3815 16.1271 12.1636 16.4676Z" fill="#299392"/>
<path d="M17.3933 18.4061C17.7997 18.3777 17.9474 18.5919 18.3534 18.6198C18.4117 18.6238 18.6671 18.2093 18.6898 18.16C18.9151 17.6715 19.0921 17.1676 19.1683 16.6329C19.1908 16.475 19.181 16.3167 19.1152 16.168C19.0477 16.0155 18.9308 15.9684 18.7753 16.0259C18.7206 16.0461 18.6746 16.0806 18.6312 16.1183C18.544 16.1938 18.4703 16.2817 18.4018 16.3742C18.2223 16.6169 18.0644 16.8733 17.9154 17.1354C17.7264 17.4679 17.5365 17.8 17.3477 18.1328C17.3344 18.1561 17.3085 18.1772 17.3243 18.2133C17.336 18.216 17.3806 18.407 17.3933 18.4061Z" fill="#299392"/>
<path d="M26.666 20.8581C26.6002 20.8438 26.5334 20.8425 26.466 20.8475C26.2297 20.8651 26.0064 20.9348 25.7871 21.0187C25.3844 21.1727 25.0014 21.3688 24.6182 21.565C23.7794 21.9942 22.9612 22.4617 22.1314 22.9076C20.8865 23.5765 19.5713 24.0079 18.1537 24.1111C17.318 24.172 16.4906 24.1343 15.668 23.978C14.2606 23.7104 12.5904 23.2407 11.3486 22.5256C11.2518 22.4699 14.2288 21.3746 16.211 20.7223C16.9332 20.4845 17.9168 20.1923 18.6353 19.94C18.8564 19.8624 19.0756 19.7791 19.2764 19.6555C19.3541 19.6077 19.429 19.5557 19.4855 19.4826C19.5951 19.3413 19.5663 19.1154 19.4316 19C19.3841 18.9592 19.235 18.8546 19.0342 18.8247C18.5378 18.7508 18.0377 18.838 17.5407 18.856C16.7328 18.8851 15.9277 18.9657 15.1197 18.9995C14.125 19.0411 13.1308 19.0749 12.1354 19.0228C11.5284 18.9909 10.9236 18.9367 10.3208 18.8597C9.69941 18.7804 9.07931 18.6916 8.45818 18.611C7.48884 18.4851 6.51914 18.4944 5.55518 18.6515C4.8286 18.7699 4.13801 19.0056 3.49236 19.3669C2.6029 19.8647 2.03186 20.615 1.73969 21.5812C1.57235 22.1347 1.59057 22.6994 1.72078 23.2561C1.90669 24.051 2.24758 24.7678 2.81266 25.3732C3.30529 25.9012 3.87565 26.3193 4.50916 26.6575C5.60585 27.243 6.78461 27.5749 8.00383 27.7757C9.02131 27.9431 10.0482 27.996 11.1894 27.9999C11.3605 27.9951 11.6428 27.99 11.9249 27.9788C12.7859 27.9445 13.6445 27.8804 14.4955 27.7407C16.095 27.4781 17.6511 27.0627 19.1604 26.4617C21.1318 25.6766 22.9797 24.6795 24.6667 23.3881C25.2147 22.9685 25.7403 22.5247 26.2248 22.0328C26.3963 21.8587 26.5556 21.674 26.6876 21.4672C26.7603 21.353 26.8163 21.2314 26.8357 21.0968C26.8546 20.9658 26.796 20.8865 26.666 20.8581Z" fill="#299392"/>
<path d="M16.5132 11.7241C16.5227 12.8543 16.2899 13.9219 15.7361 14.9194C15.3518 15.6113 14.7986 16.1209 14.1358 16.5259C13.532 16.8949 12.8673 17.0527 12.1649 17.0466C11.3972 17.04 10.7024 16.7919 10.0621 16.3772C9.36418 15.9252 8.86718 15.2999 8.48779 14.5694C8.02506 13.6785 7.81703 12.7312 7.86001 11.731C7.91491 10.4559 8.20525 9.23591 8.72757 8.06907C9.10685 7.2218 9.53794 6.40043 9.94771 5.56828C10.6897 4.06171 11.3949 2.53955 11.8888 0.929127C11.9575 0.705272 12.0174 0.478667 12.0813 0.253323C12.0917 0.21653 12.0998 0.178934 12.1125 0.142943C12.1467 0.0459744 12.2033 0.000813651 12.2878 1.13066e-05C12.3722 -0.000791038 12.4197 0.041046 12.4564 0.14558C12.5832 0.50675 12.6875 0.874796 12.7799 1.24571C12.9031 1.74018 13.1032 2.20531 13.3021 2.67159C13.554 3.26223 13.8558 3.82674 14.1871 4.37634C14.8879 5.53928 15.4696 6.75782 15.9072 8.04478C16.1592 8.78614 16.3178 9.54677 16.4161 10.3222C16.4754 10.7879 16.5149 11.2543 16.5132 11.7241ZM12.3001 0.618505C12.2555 0.67123 12.2533 0.720975 12.2395 0.766021C11.9242 1.79577 11.5534 2.80443 11.1085 3.78582C10.6068 4.89225 10.0682 5.98057 9.51949 7.0642C9.21483 7.66595 8.92335 8.27528 8.69697 8.91062C8.39391 9.76122 8.21224 10.6412 8.15447 11.5436C8.1257 11.9933 8.14186 12.4431 8.21809 12.8883C8.33993 13.6001 8.60871 14.255 8.98937 14.867C9.44006 15.5915 10.0533 16.127 10.8353 16.4677C11.4231 16.7237 12.0362 16.8152 12.6726 16.7307C13.3533 16.6403 13.9577 16.3725 14.4878 15.9362C14.8066 15.6737 15.1102 15.3957 15.3306 15.0423C15.8815 14.1588 16.1759 13.1953 16.2179 12.1546C16.2424 11.546 16.2075 10.9408 16.1281 10.337C16.0356 9.63376 15.8998 8.94111 15.6773 8.26611C15.2483 6.96585 14.6689 5.73563 13.9642 4.5634C13.6288 4.00532 13.3179 3.43473 13.0598 2.83641C12.8363 2.31821 12.614 1.79967 12.4829 1.24766C12.4333 1.03905 12.377 0.831585 12.3001 0.618505Z" fill="black"/>
<path d="M12.1161 16.173C11.9744 16.1705 11.8499 16.1692 11.7284 16.1377C11.7007 16.1305 11.6724 16.1243 11.646 16.1136C11.5637 16.0803 11.5244 16.0186 11.5388 15.9497C11.5546 15.8739 11.6199 15.8322 11.7153 15.8427C11.8006 15.8519 11.883 15.8809 11.9701 15.8809C12.8328 15.8805 13.5535 15.5658 14.1125 14.9037C14.4451 14.5096 14.6362 14.0396 14.8037 13.5594C15.0264 12.921 15.1153 12.2601 15.123 11.5864C15.1234 11.5578 15.1201 11.5289 15.1228 11.5005C15.129 11.4356 15.1683 11.3949 15.2289 11.38C15.2915 11.3646 15.3403 11.3932 15.3768 11.444C15.406 11.4848 15.4125 11.5313 15.4122 11.5803C15.4042 12.671 15.1694 13.7068 14.6297 14.6594C14.1593 15.4895 13.4275 15.9601 12.4977 16.1354C12.4321 16.1478 12.3657 16.1576 12.2992 16.1639C12.2327 16.1705 12.1657 16.1708 12.1161 16.173Z" fill="black"/>
<path d="M15.3442 10.4481C15.3449 10.5496 15.2954 10.6175 15.2149 10.6252C15.1317 10.6331 15.0738 10.5815 15.0595 10.4757C15.0249 10.2202 14.9965 9.96394 14.961 9.70868C14.8844 9.15792 14.7201 8.62872 14.5607 8.09837C14.5332 8.00702 14.5078 7.91486 14.483 7.82271C14.4462 7.68597 14.4711 7.60905 14.5592 7.58292C14.6504 7.55587 14.7172 7.6055 14.7555 7.73961C14.859 8.10215 14.9712 8.46218 15.0704 8.8261C15.2127 9.349 15.2852 9.88267 15.3416 10.4196C15.3426 10.4291 15.3434 10.4386 15.3442 10.4481Z" fill="black"/>
<path d="M13.7941 5.48145C13.8094 5.51228 13.8316 5.55446 13.8515 5.59768C14.0441 6.01329 14.2364 6.42914 14.4283 6.84509C14.4421 6.87524 14.457 6.90619 14.4632 6.93839C14.477 7.00889 14.4473 7.06562 14.3877 7.09187C14.3223 7.12064 14.2647 7.10414 14.2201 7.05221C14.1957 7.02379 14.1781 6.98837 14.1621 6.95398C13.9634 6.52542 13.7653 6.09651 13.5676 5.66748C13.5557 5.64169 13.546 5.61407 13.5407 5.58621C13.5271 5.51653 13.5557 5.46414 13.6166 5.43159C13.6706 5.40271 13.7406 5.42116 13.7941 5.48145Z" fill="black"/>
<path d="M18.0183 22.6465C18.2167 22.4653 18.3925 22.2639 18.5633 22.0581C19.2008 21.2899 19.7569 20.4658 20.2344 19.5899C20.6626 18.8046 21.0786 18.0128 21.5025 17.2253C21.6682 16.9173 21.8539 16.6216 22.083 16.3554C22.1675 16.2573 22.2583 16.1657 22.3621 16.0875C22.7277 15.8124 23.1209 15.9707 23.1857 16.4241C23.2155 16.6331 23.2093 16.8445 23.1769 17.0537C23.0909 17.609 22.9335 18.1449 22.7359 18.6699C22.375 19.629 21.966 20.5662 21.4745 21.4661C21.3897 21.6213 21.2943 21.7707 21.2048 21.9233C21.1893 21.9498 21.1582 21.9709 21.1716 22.024C21.2373 21.9884 21.299 21.9559 21.3599 21.922C22.0746 21.5243 22.7923 21.1323 23.5243 20.7675C23.9308 20.5648 24.3405 20.3677 24.785 20.2582C24.9623 20.2146 25.1412 20.1843 25.3247 20.2076C25.6788 20.2525 25.8522 20.4968 25.7797 20.8461C25.743 21.0226 25.6621 21.179 25.5617 21.3263C25.4101 21.5485 25.2319 21.7483 25.0423 21.9383C24.2855 22.6968 23.4379 23.3428 22.5578 23.9492C21.0571 24.9835 19.4373 25.7851 17.7432 26.4482C16.4606 26.9501 15.1412 27.3122 13.7896 27.5675C12.3168 27.8457 10.8298 27.946 9.33425 27.9265C8.17475 27.9115 7.02166 27.8148 5.88646 27.564C4.88341 27.3425 3.91258 27.028 3.00604 26.5343C2.41013 26.2098 1.86683 25.8178 1.38691 25.3338C0.737472 24.6788 0.336643 23.8924 0.119322 23.0071C-0.0134086 22.4667 -0.0480236 21.9142 0.0803515 21.3707C0.30432 20.4232 0.782975 19.6316 1.58188 19.0491C2.2108 18.5906 2.9187 18.3132 3.66431 18.1182C4.23225 17.9696 4.81281 17.9169 5.3968 17.8923C6.19834 17.8587 6.99347 17.9251 7.78469 18.0483C9.54756 18.3229 11.3176 18.4692 13.104 18.3849C13.9022 18.3472 14.7 18.3062 15.4973 18.2516C15.5829 18.2457 15.6322 18.2156 15.6774 18.1425C15.8963 17.7882 16.0962 17.4232 16.2999 17.0603C16.4709 16.7554 16.6522 16.4573 16.8622 16.1773C16.9456 16.066 17.0372 15.9619 17.1463 15.8746C17.2063 15.8265 17.2701 15.7856 17.3428 15.7581C17.6422 15.645 17.9131 15.7522 18.0462 16.0428C18.1386 16.2446 18.1541 16.4586 18.124 16.6754C18.0553 17.1718 17.9005 17.6433 17.7022 18.1016C17.6316 18.2649 17.6308 18.2654 17.8024 18.3068C17.9097 18.3327 18.0139 18.3669 18.1156 18.4093C18.2051 18.4467 18.2085 18.4473 18.2538 18.3567C18.4076 18.0486 18.558 17.7389 18.7117 17.4308C18.8889 17.0753 19.0735 16.7238 19.2923 16.3916C19.4538 16.1467 19.6308 15.9157 19.8854 15.7572C19.9589 15.7115 20.0342 15.6712 20.1171 15.6451C20.3156 15.5825 20.4859 15.6319 20.619 15.7919C20.7509 15.9507 20.7922 16.1406 20.8045 16.3394C20.831 16.7695 20.7614 17.1894 20.649 17.6016C20.3311 18.7675 19.8512 19.8629 19.2107 20.8888C18.8355 21.4896 18.4401 22.0762 18.0183 22.6465ZM9.86082 27.6437C10.0319 27.6389 10.3143 27.6338 10.5962 27.6226C11.4573 27.5883 12.316 27.5243 13.1668 27.3847C14.7664 27.1221 16.3224 26.7067 17.8318 26.1056C19.8031 25.3206 21.651 24.3235 23.338 23.0321C23.886 22.6124 24.4117 22.1686 24.8962 21.6768C25.0677 21.5027 25.227 21.3179 25.3589 21.1111C25.4317 20.997 25.4876 20.8754 25.5071 20.7408C25.526 20.6095 25.4676 20.5302 25.3375 20.5019C25.2717 20.4876 25.2049 20.4864 25.1375 20.4914C24.9011 20.5089 24.6778 20.5786 24.4586 20.6625C24.0559 20.8164 23.6728 21.0127 23.2897 21.2088C22.4509 21.638 21.6327 22.1056 20.8028 22.5514C19.558 23.2204 18.2428 23.6517 16.8252 23.7549C15.9895 23.8157 15.162 23.778 14.3395 23.6217C12.9321 23.3543 11.6041 22.87 10.3623 22.1549C10.2654 22.0992 10.1938 22.1027 10.0993 22.1464C9.43076 22.4551 8.76252 22.7642 8.11721 23.1201C8.07124 23.1454 8.02505 23.1725 7.97588 23.1898C7.90241 23.2158 7.83593 23.1891 7.80223 23.1287C7.76865 23.0685 7.78206 22.9971 7.84223 22.9493C7.87559 22.9228 7.91524 22.904 7.95273 22.8832C8.40846 22.6296 8.8768 22.4012 9.34789 22.178C11.1953 21.3031 13.1105 20.6248 15.1077 20.1813C15.8499 20.0165 16.5882 19.836 17.3068 19.5837C17.5279 19.5061 17.7471 19.4228 17.9479 19.2992C18.0256 19.2514 18.1004 19.1994 18.1569 19.1264C18.2665 18.985 18.2544 18.8659 18.1198 18.7506C18.0722 18.7098 18.018 18.68 17.9598 18.6565C17.8752 18.6224 17.7881 18.597 17.699 18.5787C17.2075 18.4775 16.7092 18.482 16.2122 18.4998C15.4042 18.529 14.5991 18.6095 13.7912 18.6433C12.7965 18.685 11.8021 18.7188 10.8069 18.6666C10.1999 18.6347 9.59501 18.5805 8.99222 18.5035C8.37086 18.4242 7.75076 18.3355 7.12963 18.2549C6.16029 18.129 5.1906 18.1383 4.22664 18.2955C3.50006 18.4139 2.80947 18.6495 2.16381 19.0108C1.27436 19.5086 0.703315 20.2589 0.411147 21.2251C0.243801 21.7786 0.262024 22.3432 0.392233 22.8999C0.578148 23.6948 0.91903 24.4116 1.48411 25.0171C1.97675 25.545 2.5471 25.9631 3.18061 26.3014C4.2773 26.8869 5.45606 27.2187 6.67528 27.4194C7.69277 27.587 8.71965 27.6398 9.86082 27.6437ZM14.5623 23.3496C14.5851 23.3639 14.5887 23.3677 14.5928 23.3684C15.3552 23.5139 16.1229 23.5245 16.8937 23.4607C16.943 23.4567 16.9694 23.4309 16.9986 23.3976C17.4023 22.9369 17.796 22.4681 18.1496 21.9673C18.7545 21.1106 19.3245 20.2326 19.7483 19.2688C20.0665 18.5453 20.3415 17.8066 20.4773 17.024C20.5249 16.7502 20.5462 16.4735 20.4957 16.1962C20.4817 16.1196 20.4546 16.0487 20.4064 15.9874C20.3437 15.9079 20.2889 15.8922 20.1921 15.9233C20.1323 15.9424 20.0794 15.975 20.027 16.0086C19.8116 16.1463 19.6649 16.347 19.5287 16.5562C19.1074 17.2037 18.8078 17.9155 18.4523 18.598C18.4327 18.6357 18.4343 18.6649 18.4524 18.7043C18.5684 18.9564 18.5276 19.1669 18.327 19.3691C18.2387 19.4581 18.1391 19.5366 18.025 19.5851C17.8974 19.6393 17.8187 19.7325 17.7534 19.8462C17.7248 19.8959 17.6917 19.943 17.6606 19.9912C16.9522 21.0879 16.087 22.048 15.1118 22.9118C14.9402 23.0633 14.7603 23.2051 14.5623 23.3496ZM17.7913 23.3347C17.8049 23.3347 17.8194 23.3371 17.8328 23.3343C18.7616 23.1458 19.6466 22.834 20.4863 22.394C20.5342 22.3689 20.5715 22.336 20.6034 22.2922C20.8227 21.9899 21.0295 21.6796 21.2096 21.3524C21.6277 20.593 21.98 19.8033 22.3013 18.999C22.534 18.4166 22.7421 17.8269 22.8596 17.2085C22.9073 16.958 22.9358 16.706 22.8978 16.4527C22.8653 16.237 22.7281 16.183 22.55 16.307C22.4591 16.3703 22.3827 16.4494 22.3102 16.5326C22.0667 16.8123 21.8786 17.1287 21.7045 17.4537C21.3341 18.1449 20.9704 18.8397 20.5977 19.5295C19.852 20.9093 18.9572 22.1796 17.8258 23.2744C17.8091 23.2904 17.7886 23.3044 17.7913 23.3347ZM16.6605 20.0943C16.5578 20.1214 16.4891 20.1386 16.421 20.1575C15.8683 20.3103 15.3075 20.429 14.7488 20.5566C14.6447 20.5803 14.5689 20.6274 14.5054 20.713C14.4144 20.8358 14.3153 20.9528 14.2147 21.068C13.6721 21.6894 13.098 22.276 12.3842 22.7063C12.3638 22.7186 12.3429 22.7305 12.3433 22.7591C12.3511 22.7638 12.3587 22.7701 12.3675 22.7736C12.8977 22.9827 13.4456 23.132 14.0008 23.2569C14.0681 23.2721 14.1176 23.2549 14.1695 23.2104C14.3768 23.0331 14.5761 22.8475 14.7696 22.6555C15.345 22.0844 15.8662 21.4691 16.2895 20.7752C16.4187 20.5637 16.5363 20.3453 16.6605 20.0943ZM10.5748 21.9399C11.0087 22.195 11.4342 22.4003 11.8703 22.5843C11.9336 22.6111 11.9851 22.6081 12.0449 22.5732C12.2931 22.4286 12.5358 22.2759 12.7608 22.0971C13.2459 21.7117 13.6705 21.2648 14.0704 20.7937C14.0837 20.778 14.1082 20.763 14.0815 20.7223C12.9009 21.0597 11.735 21.4486 10.5748 21.9399ZM15.9959 18.2133C16.0073 18.2159 16.0206 18.2223 16.0335 18.2214C16.4399 18.193 16.8463 18.2002 17.2522 18.2281C17.3107 18.2321 17.3386 18.2094 17.3614 18.1601C17.5867 17.6716 17.7637 17.1678 17.8399 16.633C17.8624 16.4751 17.8526 16.3168 17.7868 16.1681C17.7193 16.0156 17.6024 15.9684 17.4469 16.026C17.3922 16.0462 17.3462 16.0807 17.3028 16.1184C17.2156 16.194 17.1419 16.2818 17.0734 16.3743C16.8939 16.617 16.736 16.8734 16.587 17.1355C16.398 17.468 16.208 17.8001 16.0193 18.1328C16.006 18.1561 15.9801 18.1772 15.9959 18.2133ZM16.3966 21.1686C16.6391 20.9607 17.2949 20.0779 17.368 19.871C17.2721 19.9016 17.1824 19.9308 17.0925 19.9587C17.052 19.9713 17.0323 20.0025 17.0149 20.0375C16.8226 20.4209 16.6208 20.799 16.3966 21.1686Z" fill="black"/>
<path d="M7.48696 1.55829L7.68434 2.37106L8.49711 2.56844L7.68434 2.76582L7.48696 3.57859L7.28958 2.76582L6.47681 2.56844L7.28958 2.37106L7.48696 1.55829Z" fill="#299392"/>
<path d="M19.1795 5.41821L19.4888 6.69176L20.7623 7.00101L19.4888 7.31037L19.1795 8.58381L18.8701 7.31037L17.5967 7.00101L18.8701 6.69176L19.1795 5.41821Z" fill="#299392"/>
<path d="M4.75766 10.6322L5.22096 12.5397L7.12847 13.003L5.22096 13.4663L4.75766 15.3737L4.29436 13.4663L2.38696 13.003L4.29436 12.5397L4.75766 10.6322Z" fill="#299392"/>
<path d="M32.1791 20V6.26H37.1991C41.9191 6.26 45.2391 9.1 45.2391 13.12C45.2391 17.14 41.9191 20 37.1991 20H32.1791ZM35.5991 16.9H37.7191C40.0591 16.9 41.7391 15.32 41.7391 13.12C41.7391 10.92 40.0591 9.36 37.7191 9.36H35.5991V16.9ZM52.1144 17.5C52.9144 17.5 53.8344 17.16 54.4544 16.62L56.4544 18.64C55.5344 19.58 53.7544 20.24 52.2144 20.24C49.0144 20.24 46.6544 17.98 46.6544 14.8C46.6544 11.66 48.9344 9.42 52.0544 9.42C55.3344 9.42 57.2544 11.82 57.2544 15.76H49.8744C50.1944 16.8 51.0144 17.5 52.1144 17.5ZM52.1144 12.14C51.0944 12.14 50.2744 12.74 49.9144 13.7H54.1144C53.8344 12.76 53.1344 12.14 52.1144 12.14ZM62.3904 11.58C63.0704 10.24 64.2904 9.42 65.7904 9.42V12.24C63.6904 12.24 62.4104 13.44 62.4104 15.34L62.3904 15.3V20H59.0104V9.66H62.3904V11.58ZM80.0116 9.42C82.1716 9.42 83.8916 11.08 83.8916 13.42V20.02H80.6516V14.02C80.6516 12.98 79.9716 12.24 79.0116 12.24C77.9916 12.24 77.2716 12.94 77.2716 13.88V20.02H74.0316V14.02C74.0316 12.98 73.3516 12.24 72.3916 12.24C71.3716 12.24 70.6516 12.94 70.6516 13.88V20H67.2716V9.66H70.6516V11C71.1516 10.02 72.1516 9.42 73.4116 9.42C74.7916 9.42 75.9916 10.1 76.6716 11.2C77.2316 10.12 78.4916 9.42 80.0116 9.42ZM90.9397 9.42C93.5997 9.42 95.5997 11.1 95.5997 13.86V20H92.3397V19.12C91.6197 19.84 90.5397 20.24 89.4797 20.24C87.2797 20.24 85.5397 18.9 85.5397 16.94C85.5397 14.92 87.4797 13.5 89.9197 13.5C90.6797 13.5 91.5397 13.68 92.3397 14V13.86C92.3397 12.76 91.4997 11.96 90.0797 11.96C89.0997 11.96 88.3597 12.26 87.4797 12.72L86.4197 10.6C87.8597 9.88 89.3397 9.42 90.9397 9.42ZM90.2997 18.16C91.2997 18.16 92.1997 17.68 92.3397 16.9V15.8C91.8197 15.6 91.0997 15.46 90.3997 15.46C89.4797 15.46 88.7597 16.04 88.7597 16.84C88.7597 17.64 89.3997 18.16 90.2997 18.16ZM107.679 6.26H111.519L106.079 20H102.239L96.7994 6.26H100.639L104.159 15.16L107.679 6.26ZM114.559 8.4C113.559 8.4 112.759 7.58 112.759 6.6C112.759 5.66 113.559 4.84 114.559 4.84C115.539 4.84 116.319 5.66 116.319 6.6C116.319 7.58 115.539 8.4 114.559 8.4ZM112.839 20V9.66H116.219V20H112.839ZM122.581 20.24C120.841 20.24 119.041 19.66 117.781 18.68L119.141 16.5C120.101 17.18 121.421 17.68 122.661 17.68C123.401 17.68 123.821 17.44 123.821 17.04C123.821 16.54 123.141 16.34 122.121 16.1C120.121 15.64 118.261 15.12 118.241 12.88C118.241 10.9 119.861 9.42 122.421 9.42C123.961 9.42 125.461 9.96 126.621 10.74L125.381 12.96C124.481 12.38 123.361 11.94 122.421 11.94C121.801 11.94 121.361 12.22 121.361 12.54C121.361 13 121.801 13.1 123.021 13.42C124.861 13.86 126.921 14.46 126.921 16.82C126.921 18.9 125.241 20.24 122.581 20.24ZM130.399 8.4C129.399 8.4 128.599 7.58 128.599 6.6C128.599 5.66 129.399 4.84 130.399 4.84C131.379 4.84 132.159 5.66 132.159 6.6C132.159 7.58 131.379 8.4 130.399 8.4ZM128.679 20V9.66H132.059V20H128.679ZM139.621 20.24C136.501 20.24 133.881 17.76 133.881 14.82C133.881 11.88 136.501 9.42 139.621 9.42C142.741 9.42 145.361 11.88 145.361 14.82C145.361 17.76 142.741 20.24 139.621 20.24ZM139.621 17.42C141.001 17.42 142.161 16.22 142.161 14.82C142.161 13.42 141.001 12.24 139.621 12.24C138.241 12.24 137.081 13.42 137.081 14.82C137.081 16.22 138.241 17.42 139.621 17.42ZM153.496 9.42C155.716 9.42 157.296 11.08 157.296 13.42V20H154.056V14.18C154.056 13.04 153.336 12.24 152.296 12.24C151.256 12.24 150.476 13.02 150.476 14.04L150.456 13.98V20H147.076V9.66H150.456V10.84C151.096 9.96 152.196 9.42 153.496 9.42ZM174.926 20L174.126 18H168.686L167.886 20H164.046L169.486 6.26H173.326L178.766 20H174.926ZM169.746 15.32H173.066L171.406 11.1L169.746 15.32ZM180.246 20V6.26H183.666V20H180.246Z" fill="#299392"/>
</svg>
