<svg width="235" height="28" viewBox="0 0 235 28" fill="none" xmlns="http://www.w3.org/2000/svg">
<path d="M27.568 7.98085C27.5653 8.05169 27.5598 8.12253 27.5544 8.19338C27.4863 9.06803 27.2301 9.85276 26.9223 10.5776C26.2956 12.0299 25.4073 13.2587 24.4509 14.3895C22.5136 16.6429 20.2057 18.4658 17.7425 20.0052C15.263 21.5175 12.5981 22.7627 9.71806 23.4848C9.12951 23.6265 8.53279 23.7518 7.92516 23.8444V21.4058C7.92516 21.3595 7.92244 21.3159 7.91699 21.2723C7.87067 20.839 7.59274 20.4739 7.20855 20.305C7.06141 20.2396 6.8952 20.2042 6.72354 20.2042H1.33395C0.753572 20.2042 0.271289 19.7927 0.159574 19.2478C0.1405 19.1687 0.132324 19.0843 0.132324 18.9998V8.99718C0.132324 8.33234 0.669105 7.79556 1.33395 7.79556H6.72354C7.38838 7.79556 7.92516 7.25606 7.92516 6.59394V1.20162C7.92516 0.539504 8.46466 0 9.12951 0H19.1321C19.797 0 20.3338 0.539504 20.3338 1.20162V6.59394C20.3338 7.25606 20.8733 7.79556 21.5354 7.79556H26.9277C27.1648 7.79556 27.3827 7.86368 27.568 7.98085Z" fill="#299392"/>
<path d="M9.5599 21.4061C9.5599 21.2962 9.55363 21.1908 9.54082 21.084C9.42883 20.0848 8.78825 19.214 7.86646 18.8088C7.51605 18.6532 7.11878 18.5696 6.72341 18.5696H1.76733V9.43069H6.72341C8.28743 9.43069 9.5599 8.15823 9.5599 6.59421V1.63513H18.6988V6.59421C18.6988 8.15823 19.9712 9.43069 21.5352 9.43069H25.6167C25.5589 9.59282 25.4927 9.76121 25.4175 9.93859C24.9453 11.0329 24.2611 12.0827 23.2025 13.3342C21.5407 15.2669 19.4685 16.999 16.8759 18.6192C14.3678 20.1488 11.967 21.2061 9.5599 21.8379V21.4061Z" fill="#F9FBFC"/>
<path d="M28.1292 10.4879V19.0001C28.1292 19.665 27.5924 20.2045 26.9276 20.2045H21.5353C20.8731 20.2045 20.3336 20.7412 20.3336 21.4061V26.7957C20.3336 27.4605 19.7969 28 19.132 28H9.12939C8.46455 28 7.92505 27.4605 7.92505 26.7957V24.9428C8.56537 24.8529 9.24383 24.7221 9.98225 24.5423C12.7397 23.8529 15.4645 22.6731 18.32 20.9292C21.1511 19.1609 23.4263 17.2535 25.2818 15.0928C26.5216 13.6296 27.3363 12.368 27.9248 11.0056C28.0011 10.8285 28.0693 10.6566 28.1292 10.4879Z" fill="#299392"/>
<path d="M27.5679 7.98087C27.5652 8.05172 27.5598 8.12256 27.5543 8.19341C27.4862 9.06806 27.2301 9.85279 26.9222 10.5776C26.2955 12.0299 25.4072 13.2587 24.4508 14.3895C22.5135 16.6429 20.2056 18.4658 17.7424 20.0053C15.2629 21.5175 12.5981 22.7627 9.71797 23.4848C9.12942 23.6265 8.5327 23.7518 7.92508 23.8445C7.56541 23.899 7.20301 23.9426 6.83517 23.9671C6.30112 24.0107 5.75616 24.0189 5.20031 23.9862C4.41285 23.9371 3.59815 23.8145 2.78344 23.4821C1.97691 23.166 1.1513 22.5693 0.649942 21.7164C0.532777 21.5093 0.434692 21.2941 0.358398 21.0707C0.655398 21.2151 0.987816 21.2941 1.33386 21.2941H3.45646C3.97689 21.493 4.61721 21.5884 5.2875 21.5856C5.79431 21.5829 6.31201 21.542 6.83517 21.4685C7.19484 21.4194 7.55451 21.3513 7.9169 21.2723C8.29837 21.1933 8.67711 21.0952 9.05585 20.9862C10.3174 20.6265 11.5654 20.1524 12.7752 19.5884C13.9877 19.0325 15.1702 18.3922 16.3119 17.6865C17.4563 16.9835 18.5571 16.2124 19.6007 15.3786C20.647 14.5503 21.6279 13.6484 22.5162 12.6811C23.4045 11.7193 24.1947 10.6729 24.7423 9.58031C25.0502 8.98086 25.2546 8.35417 25.3036 7.79559C25.3445 7.38687 25.3009 7.01358 25.1592 6.70568C25.1456 6.67571 25.132 6.64846 25.1156 6.61849C24.9086 6.2561 24.5571 5.93185 24.0448 5.71659C23.5462 5.49316 22.9386 5.37055 22.3091 5.31333C22.0176 5.2888 21.7233 5.2779 21.4236 5.2779V3.5831C21.7369 3.55313 22.053 3.53405 22.3745 3.53133C23.1402 3.52315 23.9358 3.59945 24.7451 3.87465C25.5462 4.13623 26.3908 4.66756 26.9331 5.49589C27.1892 5.89098 27.3608 6.32966 27.4617 6.77108C27.5516 7.17979 27.5843 7.59123 27.5679 7.98087Z" fill="#272525"/>
<path d="M40.5747 25.2H34.2893V2.8H42.7812L46.1245 11.6263L47.5621 17.4102H47.9968L49.5347 11.6263L52.5102 2.8H61.0021V25.2H54.7168V17.009L55.0845 12.1946H54.6499L53.2792 17.3433L51.4738 22.8597H43.8177L42.0123 17.3433L40.6081 12.1946H40.1735L40.5747 17.009V25.2Z" fill="#299392"/>
<path d="M81.5649 25.2H63.4777V2.8H81.5649V8.45015H69.7631V11.1582H81.0634V16.7749H69.7631V19.5499H81.5649V25.2Z" fill="#299392"/>
<path d="M93.1538 25.2H83.4917V2.8H93.1538C100.509 2.8 104.554 6.91224 104.554 14C104.554 21.0878 100.509 25.2 93.1538 25.2ZM92.8195 8.45015H89.7771V19.5499H92.8195C96.7646 19.5499 97.7676 18.714 97.7676 14C97.7676 9.28597 96.7646 8.45015 92.8195 8.45015Z" fill="#299392"/>
<path d="M129.494 25.2H111.407V2.8H129.494V8.45015H117.692V11.1582H128.993V16.7749H117.692V19.5499H129.494V25.2Z" fill="#299392"/>
<path d="M137.176 25.2H129.888L136.206 14.0669V13.766L129.888 2.8H137.276L141.355 10.0884H141.656L145.434 2.8H152.722L146.47 13.6322V13.9331L152.722 25.2H145.334L141.255 17.9785H140.954L137.176 25.2Z" fill="#299392"/>
<path d="M159.679 25.2H153.394V2.8H163.992C169.341 2.8 172.785 5.90926 172.785 11.0579C172.785 16.3737 169.341 19.2824 163.992 19.2824H159.679V25.2ZM163.758 8.45015H159.679V13.6657H163.758C165.898 13.6657 166.499 13.2645 166.499 11.0579C166.499 8.85135 165.898 8.45015 163.758 8.45015Z" fill="#299392"/>
<path d="M192.148 25.2H174.061V2.8H192.148V8.45015H180.346V11.1582H191.646V16.7749H180.346V19.5499H192.148V25.2Z" fill="#299392"/>
<path d="M200.36 25.2H194.075V2.8H205.342C210.992 2.8 213.666 5.20717 213.666 9.68717C213.666 13.231 212.296 15.4376 208.518 15.8722V16.1731C210.791 16.7749 211.694 18.2125 212.563 20.1182L214.903 25.2H207.582L205.375 20.5528C204.439 18.6137 204.004 18.0454 201.898 18.0454H200.36V25.2ZM200.36 8.45015V12.8299H205.108C206.88 12.8299 207.381 12.3284 207.381 10.5564C207.381 8.91821 206.88 8.45015 205.108 8.45015H200.36Z" fill="#299392"/>
<path d="M227.764 25.2H221.479V8.45015H214.592V2.8H234.651V8.45015H227.764V25.2Z" fill="#299392"/>
</svg>
